{"glyphs":{"0":{"ha":1189,"x_min":0,"x_max":0,"o":"m 594 -14 b 1092 576 906 -14 1092 206 b 594 1167 1092 947 906 1167 b 97 576 282 1167 97 947 b 594 -14 97 206 282 -14 z m 596 39 b 292 576 388 39 292 208 b 596 1114 292 944 388 1114 b 897 576 803 1114 897 944 b 596 39 897 208 803 39 z "},"1":{"ha":807,"x_min":0,"x_max":0,"o":"m 108 0 l 754 0 b 765 7 761 0 765 3 l 765 46 b 754 53 765 50 761 53 b 525 264 561 53 525 82 l 525 1146 b 518 1153 525 1150 522 1153 l 463 1153 b 454 1147 460 1153 456 1151 b 146 938 382 950 311 938 l 106 938 b 99 931 101 938 99 935 l 99 892 b 106 885 99 888 101 885 b 379 926 264 885 322 885 l 379 913 b 338 818 340 878 338 846 l 338 264 b 108 53 338 82 301 53 b 97 46 101 53 97 50 l 97 7 b 108 0 97 3 101 0 z "},"2":{"ha":1054,"x_min":0,"x_max":0,"o":"m 908 306 b 901 299 904 306 901 303 b 669 150 885 179 851 150 l 246 150 b 167 81 204 150 181 144 l 153 81 l 153 150 b 494 443 153 317 240 388 b 957 867 767 503 957 613 b 564 1167 957 1064 822 1167 b 142 785 267 1167 121 1036 b 151 772 142 776 144 772 l 328 772 b 336 785 335 772 336 776 b 565 1114 308 1006 383 1114 b 763 876 715 1114 763 1028 b 479 561 763 658 681 611 b 97 147 217 496 97 404 l 97 0 l 913 0 l 929 122 l 953 292 b 947 300 954 296 951 299 z "},"3":{"ha":1056,"x_min":0,"x_max":0,"o":"m 101 368 b 538 -14 74 201 181 -14 b 958 297 806 -14 958 106 b 665 579 958 460 850 564 l 665 593 b 944 858 844 608 944 703 b 538 1167 944 1049 793 1167 b 115 785 193 1167 88 953 b 125 772 117 772 118 772 l 301 772 b 308 786 307 772 310 772 b 529 1114 297 922 288 1114 b 750 854 685 1114 750 1035 b 542 613 750 613 633 613 l 367 613 b 360 606 363 613 360 610 l 360 567 b 367 560 360 563 363 560 l 542 560 b 764 293 601 560 764 560 b 529 39 764 118 693 39 b 294 367 275 39 283 231 b 288 381 296 381 293 381 l 111 381 b 101 368 104 381 103 381 z "},"4":{"ha":1000,"x_min":0,"x_max":0,"o":"m 885 501 b 878 496 881 501 878 499 b 710 396 878 418 853 399 l 710 1156 b 679 1161 710 1168 688 1171 l 44 365 b 54 343 38 357 43 343 l 522 343 l 522 264 b 322 53 522 82 492 53 b 313 46 317 53 313 50 l 313 7 b 322 0 313 3 317 0 l 910 0 b 919 7 915 0 919 3 l 919 46 b 910 53 919 50 915 53 b 710 264 740 53 710 82 l 710 343 b 878 243 853 340 878 321 b 885 238 878 240 881 238 l 924 238 b 931 243 928 238 931 240 l 931 496 b 924 501 931 499 928 501 z m 578 382 b 482 396 546 396 526 396 l 139 396 l 522 878 l 522 522 b 578 396 522 471 522 432 z "},"5":{"ha":1011,"x_min":0,"x_max":0,"o":"m 85 368 b 479 -14 64 128 210 -14 b 914 390 740 -14 914 147 b 519 783 914 638 768 783 b 174 592 365 783 240 713 l 160 592 l 201 1072 l 215 1072 b 294 1003 229 1008 253 1003 l 608 1003 b 826 857 790 1003 821 978 b 833 851 826 853 829 850 l 872 853 b 879 860 876 853 879 856 l 871 1031 l 865 1153 l 153 1153 l 100 543 l 193 543 b 492 731 251 661 363 731 b 719 367 675 731 719 600 b 488 39 719 136 638 39 b 278 368 321 39 251 142 b 271 381 279 376 278 381 l 94 381 b 85 368 88 381 85 376 z "},"6":{"ha":1093,"x_min":0,"x_max":0,"o":"m 615 783 b 275 610 435 783 349 710 l 261 610 b 299 756 283 650 299 689 b 565 1114 299 868 332 1114 b 774 825 713 1114 783 1015 b 781 818 774 821 776 818 l 961 818 b 968 825 965 818 968 821 b 569 1167 978 1040 831 1167 b 97 547 272 1167 97 936 b 561 -14 97 194 268 -14 b 996 390 822 -14 996 147 b 615 783 996 638 854 783 z m 550 39 b 292 413 374 39 292 150 b 565 731 292 583 388 731 b 801 367 719 731 801 600 b 550 39 801 136 706 39 z "},"7":{"ha":950,"x_min":0,"x_max":0,"o":"m 85 1031 l 69 860 b 75 853 68 856 71 853 l 114 849 b 121 856 118 849 121 851 b 346 1003 132 976 164 1003 l 649 1003 b 817 1049 708 1003 747 1006 l 825 1035 b 272 11 485 811 272 431 b 283 0 272 3 276 0 l 456 0 b 467 13 461 0 467 4 b 914 1018 467 706 743 925 b 922 1032 921 1021 922 1025 l 922 1136 b 910 1153 922 1149 919 1153 l 110 1153 b 94 1139 101 1153 96 1147 z "},"8":{"ha":1125,"x_min":0,"x_max":0,"o":"m 97 307 b 563 -14 97 106 269 -14 b 1028 307 856 -14 1028 106 b 707 607 1028 479 908 590 l 707 621 b 986 874 882 635 986 729 b 563 1167 986 1058 829 1167 b 139 874 296 1167 139 1058 b 418 621 139 729 243 635 l 418 607 b 97 307 217 590 97 479 z m 333 876 b 563 1114 333 1039 406 1114 b 792 876 719 1114 792 1039 b 563 640 792 714 719 640 b 333 876 406 640 333 714 z m 292 304 b 563 588 292 499 376 588 b 833 304 749 588 833 499 b 563 39 833 122 749 39 b 292 304 376 39 292 122 z "},"9":{"ha":1093,"x_min":0,"x_max":0,"o":"m 532 1167 b 97 763 271 1167 97 1006 b 478 369 97 515 239 369 b 818 543 658 369 744 443 l 832 543 b 794 397 810 503 794 464 b 528 39 794 285 761 39 b 319 328 381 39 310 138 b 313 335 319 332 317 335 l 132 335 b 125 328 128 335 125 332 b 524 -14 115 113 263 -14 b 996 606 821 -14 996 217 b 532 1167 996 958 825 1167 z m 528 422 b 292 786 374 422 292 553 b 543 1114 292 1017 388 1114 b 801 740 719 1114 801 1003 b 528 422 801 569 706 422 z "}," ":{"ha":417,"x_min":0,"x_max":0,"o":""},"A":{"ha":1435,"x_min":0,"x_max":0,"o":"m 1374 53 b 1165 246 1278 53 1231 76 l 818 1153 l 617 1153 l 269 246 b 61 53 204 76 157 53 b 56 46 57 53 56 50 l 56 7 b 61 0 56 3 57 0 l 378 0 b 385 7 382 0 385 3 l 385 46 b 378 53 385 50 382 53 b 328 247 257 53 264 76 l 422 499 b 971 228 667 493 892 390 b 915 53 1029 75 1032 53 b 908 46 911 53 908 50 l 908 7 b 915 0 908 3 911 0 l 1374 0 b 1379 7 1378 0 1379 3 l 1379 46 b 1374 53 1379 50 1378 53 z m 628 1049 b 636 1090 633 1064 636 1075 l 650 1090 b 658 1049 650 1075 653 1064 l 868 493 b 929 371 886 444 901 408 l 915 371 b 442 551 840 472 646 543 z m 979 208 b 981 206 979 208 981 207 z "},"Á":{"ha":1435,"x_min":0,"x_max":0,"o":"m 486 1313 b 496 1308 488 1308 492 1307 l 972 1432 b 976 1442 976 1433 978 1438 l 957 1515 b 947 1519 956 1519 951 1521 l 479 1358 b 475 1349 475 1357 474 1353 z m 1374 53 b 1165 246 1278 53 1231 76 l 818 1153 l 617 1153 l 269 246 b 61 53 204 76 157 53 b 56 46 57 53 56 50 l 56 7 b 61 0 56 3 57 0 l 378 0 b 385 7 382 0 385 3 l 385 46 b 378 53 385 50 382 53 b 328 247 257 53 264 76 l 422 499 b 971 228 667 493 892 390 b 915 53 1029 75 1032 53 b 908 46 911 53 908 50 l 908 7 b 915 0 908 3 911 0 l 1374 0 b 1379 7 1378 0 1379 3 l 1379 46 b 1374 53 1379 50 1378 53 z m 628 1049 b 636 1090 633 1064 636 1075 l 650 1090 b 658 1049 650 1075 653 1064 l 868 493 b 929 371 886 444 901 408 l 915 371 b 442 551 840 472 646 543 z m 979 208 b 981 206 979 208 981 207 z "},"Â":{"ha":1435,"x_min":0,"x_max":0,"o":"m 471 1310 b 481 1308 474 1306 478 1307 l 713 1426 b 721 1426 715 1428 718 1428 l 953 1308 b 963 1310 956 1307 960 1306 l 990 1346 b 989 1356 993 1350 993 1353 l 721 1529 b 713 1529 718 1531 715 1531 l 444 1356 b 443 1346 440 1353 440 1350 z m 1374 53 b 1165 246 1278 53 1231 76 l 818 1153 l 617 1153 l 269 246 b 61 53 204 76 157 53 b 56 46 57 53 56 50 l 56 7 b 61 0 56 3 57 0 l 378 0 b 385 7 382 0 385 3 l 385 46 b 378 53 385 50 382 53 b 328 247 257 53 264 76 l 422 499 b 971 228 667 493 892 390 b 915 53 1029 75 1032 53 b 908 46 911 53 908 50 l 908 7 b 915 0 908 3 911 0 l 1374 0 b 1379 7 1378 0 1379 3 l 1379 46 b 1374 53 1379 50 1378 53 z m 628 1049 b 636 1090 633 1064 636 1075 l 650 1090 b 658 1049 650 1075 653 1064 l 868 493 b 929 371 886 444 901 408 l 915 371 b 442 551 840 472 646 543 z m 979 208 b 981 206 979 208 981 207 z "},"Ä":{"ha":1435,"x_min":0,"x_max":0,"o":"m 585 1322 b 675 1413 639 1322 675 1358 b 585 1503 675 1465 639 1503 b 493 1413 529 1503 493 1465 b 585 1322 493 1358 529 1322 z m 861 1322 b 951 1413 915 1322 951 1358 b 861 1503 951 1465 915 1503 b 769 1413 806 1503 769 1465 b 861 1322 769 1358 806 1322 z m 1374 53 b 1165 246 1278 53 1231 76 l 818 1153 l 617 1153 l 269 246 b 61 53 204 76 157 53 b 56 46 57 53 56 50 l 56 7 b 61 0 56 3 57 0 l 378 0 b 385 7 382 0 385 3 l 385 46 b 378 53 385 50 382 53 b 328 247 257 53 264 76 l 422 499 b 971 228 667 493 892 390 b 915 53 1029 75 1032 53 b 908 46 911 53 908 50 l 908 7 b 915 0 908 3 911 0 l 1374 0 b 1379 7 1378 0 1379 3 l 1379 46 b 1374 53 1379 50 1378 53 z m 628 1049 b 636 1090 633 1064 636 1075 l 650 1090 b 658 1049 650 1075 653 1064 l 868 493 b 929 371 886 444 901 408 l 915 371 b 442 551 840 472 646 543 z m 979 208 b 981 206 979 208 981 207 z "},"À":{"ha":1435,"x_min":0,"x_max":0,"o":"m 940 1308 b 950 1313 944 1307 949 1308 l 961 1349 b 957 1358 963 1353 961 1357 l 489 1519 b 479 1515 485 1521 481 1519 l 460 1442 b 464 1432 458 1438 460 1433 z m 1374 53 b 1165 246 1278 53 1231 76 l 818 1153 l 617 1153 l 269 246 b 61 53 204 76 157 53 b 56 46 57 53 56 50 l 56 7 b 61 0 56 3 57 0 l 378 0 b 385 7 382 0 385 3 l 385 46 b 378 53 385 50 382 53 b 328 247 257 53 264 76 l 422 499 b 971 228 667 493 892 390 b 915 53 1029 75 1032 53 b 908 46 911 53 908 50 l 908 7 b 915 0 908 3 911 0 l 1374 0 b 1379 7 1378 0 1379 3 l 1379 46 b 1374 53 1379 50 1378 53 z m 628 1049 b 636 1090 633 1064 636 1075 l 650 1090 b 658 1049 650 1075 653 1064 l 868 493 b 929 371 886 444 901 408 l 915 371 b 442 551 840 472 646 543 z m 979 208 b 981 206 979 208 981 207 z "},"Ã":{"ha":1435,"x_min":0,"x_max":0,"o":"m 479 1310 b 489 1319 482 1310 490 1310 b 544 1435 481 1376 472 1435 b 878 1296 657 1435 736 1296 b 1004 1414 964 1296 1004 1347 b 985 1507 1004 1443 994 1488 b 978 1513 983 1510 982 1513 l 933 1513 b 926 1500 929 1513 924 1513 b 886 1388 931 1476 960 1388 b 558 1526 793 1388 706 1526 b 415 1389 465 1526 415 1471 b 431 1315 415 1365 421 1344 b 440 1310 432 1310 438 1310 z m 1374 53 b 1165 246 1278 53 1231 76 l 818 1153 l 617 1153 l 269 246 b 61 53 204 76 157 53 b 56 46 57 53 56 50 l 56 7 b 61 0 56 3 57 0 l 378 0 b 385 7 382 0 385 3 l 385 46 b 378 53 385 50 382 53 b 328 247 257 53 264 76 l 422 499 b 971 228 667 493 892 390 b 915 53 1029 75 1032 53 b 908 46 911 53 908 50 l 908 7 b 915 0 908 3 911 0 l 1374 0 b 1379 7 1378 0 1379 3 l 1379 46 b 1374 53 1379 50 1378 53 z m 628 1049 b 636 1090 633 1064 636 1075 l 650 1090 b 658 1049 650 1075 653 1064 l 868 493 b 929 371 886 444 901 408 l 915 371 b 442 551 840 472 646 543 z m 979 208 b 981 206 979 208 981 207 z "},"B":{"ha":1135,"x_min":0,"x_max":0,"o":"m 742 625 l 742 639 b 1003 882 906 639 1003 729 b 561 1153 1003 1068 864 1153 l 76 1153 b 69 1146 72 1153 69 1150 l 69 1107 b 76 1100 69 1103 72 1100 b 219 889 197 1100 219 1071 l 219 264 b 76 53 219 82 197 53 b 69 46 72 53 69 50 l 69 7 b 76 0 69 3 72 0 l 617 0 b 1079 326 907 0 1079 121 b 742 625 1079 514 954 625 z m 328 1114 b 407 1100 365 1100 379 1100 l 533 1100 b 808 882 722 1100 808 1032 b 603 658 808 735 738 658 l 407 658 l 407 781 b 328 1100 407 1004 403 1061 z m 407 53 l 407 606 l 603 606 b 878 326 783 606 878 510 b 589 53 878 139 788 53 z "},"C":{"ha":1264,"x_min":0,"x_max":0,"o":"m 657 -19 b 1181 353 1001 -19 1149 218 b 1168 368 1182 363 1176 368 l 1140 368 b 1125 358 1133 368 1128 364 b 690 39 1090 231 965 39 b 278 590 421 39 278 231 b 619 1119 278 932 399 1119 b 938 672 828 1119 933 971 b 947 660 938 667 942 663 l 1115 628 b 1132 640 1122 625 1132 632 b 624 1172 1132 981 949 1172 b 83 590 301 1172 83 938 b 657 -19 83 218 307 -19 z "},"Ç":{"ha":1264,"x_min":0,"x_max":0,"o":"m 1140 368 b 1125 358 1133 368 1128 364 b 690 39 1090 231 965 39 b 278 590 421 39 278 231 b 619 1119 278 932 399 1119 b 938 672 828 1119 933 971 b 947 660 938 667 942 663 l 1115 628 b 1132 640 1122 625 1132 632 b 624 1172 1132 981 949 1172 b 83 590 301 1172 83 938 b 596 -17 83 240 281 10 l 518 -133 l 588 -133 b 707 -189 678 -133 707 -146 b 614 -262 707 -239 669 -262 b 483 -236 574 -262 526 -251 b 474 -243 476 -233 474 -240 l 474 -318 b 479 -325 474 -321 475 -324 b 603 -346 522 -339 564 -346 b 799 -190 714 -346 799 -290 b 619 -86 799 -108 744 -83 l 669 -19 b 1181 353 1006 -14 1149 219 b 1168 368 1182 363 1176 368 z "},"D":{"ha":1267,"x_min":0,"x_max":0,"o":"m 603 1153 l 76 1153 b 69 1146 72 1153 69 1150 l 69 1107 b 76 1100 69 1103 72 1100 b 219 889 197 1100 219 1071 l 219 264 b 76 53 219 82 197 53 b 69 46 72 53 69 50 l 69 7 b 76 0 69 3 72 0 l 603 0 b 1183 576 985 0 1183 197 b 603 1153 1183 956 985 1153 z m 407 53 l 407 864 b 328 1100 407 1004 403 1061 l 328 1114 b 407 1100 365 1100 379 1100 l 575 1100 b 989 576 857 1100 989 943 b 575 53 989 210 857 53 z "},"E":{"ha":1071,"x_min":0,"x_max":0,"o":"m 972 282 b 964 274 968 283 965 279 b 710 53 928 96 892 53 l 407 53 l 407 550 l 569 550 b 781 436 751 550 781 532 b 788 431 781 432 783 431 l 826 431 b 833 436 831 431 833 432 l 833 717 b 826 722 833 721 831 722 l 788 722 b 781 717 783 722 781 721 b 569 603 781 621 751 603 l 407 603 l 407 864 b 328 1100 407 1004 403 1061 l 328 1114 b 407 1100 365 1100 379 1100 l 682 1100 b 936 879 864 1100 900 1057 b 944 871 938 874 940 869 l 983 878 b 988 890 988 879 989 883 l 938 1140 l 931 1176 b 925 1181 929 1179 928 1181 l 908 1181 b 901 1174 904 1181 901 1178 b 853 1153 901 1153 874 1153 l 76 1153 b 69 1146 72 1153 69 1150 l 69 1107 b 76 1100 69 1103 72 1100 b 219 889 197 1100 219 1071 l 219 264 b 76 53 219 82 197 53 b 69 46 72 53 69 50 l 69 7 b 76 0 69 3 72 0 l 881 0 b 929 -21 901 0 929 0 b 936 -28 929 -25 932 -28 l 953 -28 b 958 -24 956 -28 957 -26 l 965 13 l 1015 263 b 1011 275 1017 269 1015 274 z "},"É":{"ha":1071,"x_min":0,"x_max":0,"o":"m 321 1313 b 331 1308 322 1308 326 1307 l 807 1432 b 811 1442 811 1433 813 1438 l 792 1515 b 782 1519 790 1519 786 1521 l 314 1358 b 310 1349 310 1357 308 1353 z m 972 282 b 964 274 968 283 965 279 b 710 53 928 96 892 53 l 407 53 l 407 550 l 569 550 b 781 436 751 550 781 532 b 788 431 781 432 783 431 l 826 431 b 833 436 831 431 833 432 l 833 717 b 826 722 833 721 831 722 l 788 722 b 781 717 783 722 781 721 b 569 603 781 621 751 603 l 407 603 l 407 864 b 328 1100 407 1004 403 1061 l 328 1114 b 407 1100 365 1100 379 1100 l 682 1100 b 936 879 864 1100 900 1057 b 944 871 938 874 940 869 l 983 878 b 988 890 988 879 989 883 l 938 1140 l 931 1176 b 925 1181 929 1179 928 1181 l 908 1181 b 901 1174 904 1181 901 1178 b 853 1153 901 1153 874 1153 l 76 1153 b 69 1146 72 1153 69 1150 l 69 1107 b 76 1100 69 1103 72 1100 b 219 889 197 1100 219 1071 l 219 264 b 76 53 219 82 197 53 b 69 46 72 53 69 50 l 69 7 b 76 0 69 3 72 0 l 881 0 b 929 -21 901 0 929 0 b 936 -28 929 -25 932 -28 l 953 -28 b 958 -24 956 -28 957 -26 l 965 13 l 1015 263 b 1011 275 1017 269 1015 274 z "},"Ê":{"ha":1071,"x_min":0,"x_max":0,"o":"m 306 1310 b 315 1308 308 1306 313 1307 l 547 1426 b 556 1426 550 1428 553 1428 l 788 1308 b 797 1310 790 1307 794 1306 l 825 1346 b 824 1356 828 1350 828 1353 l 556 1529 b 547 1529 553 1531 550 1531 l 279 1356 b 278 1346 275 1353 275 1350 z m 972 282 b 964 274 968 283 965 279 b 710 53 928 96 892 53 l 407 53 l 407 550 l 569 550 b 781 436 751 550 781 532 b 788 431 781 432 783 431 l 826 431 b 833 436 831 431 833 432 l 833 717 b 826 722 833 721 831 722 l 788 722 b 781 717 783 722 781 721 b 569 603 781 621 751 603 l 407 603 l 407 864 b 328 1100 407 1004 403 1061 l 328 1114 b 407 1100 365 1100 379 1100 l 682 1100 b 936 879 864 1100 900 1057 b 944 871 938 874 940 869 l 983 878 b 988 890 988 879 989 883 l 938 1140 l 931 1176 b 925 1181 929 1179 928 1181 l 908 1181 b 901 1174 904 1181 901 1178 b 853 1153 901 1153 874 1153 l 76 1153 b 69 1146 72 1153 69 1150 l 69 1107 b 76 1100 69 1103 72 1100 b 219 889 197 1100 219 1071 l 219 264 b 76 53 219 82 197 53 b 69 46 72 53 69 50 l 69 7 b 76 0 69 3 72 0 l 881 0 b 929 -21 901 0 929 0 b 936 -28 929 -25 932 -28 l 953 -28 b 958 -24 956 -28 957 -26 l 965 13 l 1015 263 b 1011 275 1017 269 1015 274 z "},"Ë":{"ha":1071,"x_min":0,"x_max":0,"o":"m 419 1322 b 510 1413 474 1322 510 1358 b 419 1503 510 1465 474 1503 b 328 1413 364 1503 328 1465 b 419 1322 328 1358 364 1322 z m 696 1322 b 786 1413 750 1322 786 1358 b 696 1503 786 1465 750 1503 b 604 1413 640 1503 604 1465 b 696 1322 604 1358 640 1322 z m 972 282 b 964 274 968 283 965 279 b 710 53 928 96 892 53 l 407 53 l 407 550 l 569 550 b 781 436 751 550 781 532 b 788 431 781 432 783 431 l 826 431 b 833 436 831 431 833 432 l 833 717 b 826 722 833 721 831 722 l 788 722 b 781 717 783 722 781 721 b 569 603 781 621 751 603 l 407 603 l 407 864 b 328 1100 407 1004 403 1061 l 328 1114 b 407 1100 365 1100 379 1100 l 682 1100 b 936 879 864 1100 900 1057 b 944 871 938 874 940 869 l 983 878 b 988 890 988 879 989 883 l 938 1140 l 931 1176 b 925 1181 929 1179 928 1181 l 908 1181 b 901 1174 904 1181 901 1178 b 853 1153 901 1153 874 1153 l 76 1153 b 69 1146 72 1153 69 1150 l 69 1107 b 76 1100 69 1103 72 1100 b 219 889 197 1100 219 1071 l 219 264 b 76 53 219 82 197 53 b 69 46 72 53 69 50 l 69 7 b 76 0 69 3 72 0 l 881 0 b 929 -21 901 0 929 0 b 936 -28 929 -25 932 -28 l 953 -28 b 958 -24 956 -28 957 -26 l 965 13 l 1015 263 b 1011 275 1017 269 1015 274 z "},"È":{"ha":1071,"x_min":0,"x_max":0,"o":"m 775 1308 b 785 1313 779 1307 783 1308 l 796 1349 b 792 1358 797 1353 796 1357 l 324 1519 b 314 1515 319 1521 315 1519 l 294 1442 b 299 1432 293 1438 294 1433 z m 972 282 b 964 274 968 283 965 279 b 710 53 928 96 892 53 l 407 53 l 407 550 l 569 550 b 781 436 751 550 781 532 b 788 431 781 432 783 431 l 826 431 b 833 436 831 431 833 432 l 833 717 b 826 722 833 721 831 722 l 788 722 b 781 717 783 722 781 721 b 569 603 781 621 751 603 l 407 603 l 407 864 b 328 1100 407 1004 403 1061 l 328 1114 b 407 1100 365 1100 379 1100 l 682 1100 b 936 879 864 1100 900 1057 b 944 871 938 874 940 869 l 983 878 b 988 890 988 879 989 883 l 938 1140 l 931 1176 b 925 1181 929 1179 928 1181 l 908 1181 b 901 1174 904 1181 901 1178 b 853 1153 901 1153 874 1153 l 76 1153 b 69 1146 72 1153 69 1150 l 69 1107 b 76 1100 69 1103 72 1100 b 219 889 197 1100 219 1071 l 219 264 b 76 53 219 82 197 53 b 69 46 72 53 69 50 l 69 7 b 76 0 69 3 72 0 l 881 0 b 929 -21 901 0 929 0 b 936 -28 929 -25 932 -28 l 953 -28 b 958 -24 956 -28 957 -26 l 965 13 l 1015 263 b 1011 275 1017 269 1015 274 z "},"F":{"ha":1050,"x_min":0,"x_max":0,"o":"m 860 1153 l 76 1153 b 69 1146 72 1153 69 1150 l 69 1107 b 76 1100 69 1103 72 1100 b 219 889 197 1100 219 1071 l 219 264 b 76 53 219 82 197 53 b 69 46 72 53 69 50 l 69 7 b 76 0 69 3 72 0 l 550 0 b 557 7 554 0 557 3 l 557 46 b 550 53 557 50 554 53 b 407 264 429 53 407 82 l 407 508 l 563 508 b 774 394 744 508 774 490 b 781 389 774 390 776 389 l 819 389 b 826 394 824 389 826 390 l 826 675 b 819 681 826 679 824 681 l 781 681 b 774 675 776 681 774 679 b 563 561 774 579 744 561 l 407 561 l 407 864 b 328 1100 407 1004 403 1061 l 328 1114 b 407 1100 365 1100 379 1100 l 689 1100 b 943 879 871 1100 907 1057 b 951 871 944 874 947 869 l 990 878 b 994 890 994 879 996 883 l 944 1140 l 938 1176 b 932 1181 936 1179 935 1181 l 915 1181 b 908 1174 911 1181 908 1178 b 860 1153 908 1153 881 1153 z "},"G":{"ha":1279,"x_min":0,"x_max":0,"o":"m 643 -14 b 1114 121 801 -14 975 36 l 1114 299 b 1232 518 1114 481 1136 511 b 1238 526 1235 519 1238 522 l 1235 565 b 1228 571 1233 569 1232 571 l 564 521 b 557 514 560 521 557 519 l 560 475 b 567 468 560 469 563 468 l 1011 507 l 1013 493 b 919 349 926 481 919 422 l 919 125 b 663 44 860 69 764 44 b 278 590 410 44 278 232 b 633 1114 278 935 400 1114 b 924 764 835 1114 935 994 b 929 757 924 760 926 758 l 1110 725 b 1118 732 1114 724 1118 728 b 633 1167 1133 993 940 1167 b 83 590 288 1167 83 953 b 643 -14 83 211 292 -14 z "},"H":{"ha":1433,"x_min":0,"x_max":0,"o":"m 1357 1100 b 1364 1107 1361 1100 1364 1103 l 1364 1146 b 1357 1153 1364 1150 1361 1153 l 883 1153 b 876 1146 879 1153 876 1150 l 876 1107 b 883 1100 876 1103 879 1100 b 1026 889 1004 1100 1026 1071 l 1026 631 l 407 631 l 407 889 b 550 1100 407 1071 429 1100 b 557 1107 554 1100 557 1103 l 557 1146 b 550 1153 557 1150 554 1153 l 76 1153 b 69 1146 72 1153 69 1150 l 69 1107 b 76 1100 69 1103 72 1100 b 219 889 197 1100 219 1071 l 219 264 b 76 53 219 82 197 53 b 69 46 72 53 69 50 l 69 7 b 76 0 69 3 72 0 l 550 0 b 557 7 554 0 557 3 l 557 46 b 550 53 557 50 554 53 b 407 264 429 53 407 82 l 407 342 b 328 578 407 482 403 539 l 328 592 b 407 578 365 578 379 578 l 1026 578 l 1026 264 b 883 53 1026 82 1004 53 b 876 46 879 53 876 50 l 876 7 b 883 0 876 3 879 0 l 1357 0 b 1364 7 1361 0 1364 3 l 1364 46 b 1357 53 1364 50 1361 53 b 1214 264 1236 53 1214 82 l 1214 889 b 1357 1100 1214 1071 1236 1100 z "},"I":{"ha":626,"x_min":0,"x_max":0,"o":"m 76 0 l 550 0 b 557 7 554 0 557 3 l 557 46 b 550 53 557 50 554 53 b 407 264 429 53 407 82 l 407 889 b 550 1100 407 1071 429 1100 b 557 1107 554 1100 557 1103 l 557 1146 b 550 1153 557 1150 554 1153 l 76 1153 b 69 1146 72 1153 69 1150 l 69 1107 b 76 1100 69 1103 72 1100 b 219 889 197 1100 219 1071 l 219 264 b 76 53 219 82 197 53 b 69 46 72 53 69 50 l 69 7 b 76 0 69 3 72 0 z "},"Í":{"ha":626,"x_min":0,"x_max":0,"o":"m 571 1432 b 575 1442 575 1433 576 1438 l 556 1515 b 546 1519 554 1519 550 1521 l 78 1358 b 74 1349 74 1357 72 1353 l 85 1313 b 94 1308 86 1308 90 1307 z m 76 0 l 550 0 b 557 7 554 0 557 3 l 557 46 b 550 53 557 50 554 53 b 407 264 429 53 407 82 l 407 889 b 550 1100 407 1071 429 1100 b 557 1107 554 1100 557 1103 l 557 1146 b 550 1153 557 1150 554 1153 l 76 1153 b 69 1146 72 1153 69 1150 l 69 1107 b 76 1100 69 1103 72 1100 b 219 889 197 1100 219 1071 l 219 264 b 76 53 219 82 197 53 b 69 46 72 53 69 50 l 69 7 b 76 0 69 3 72 0 z "},"Î":{"ha":626,"x_min":0,"x_max":0,"o":"m 311 1426 b 319 1426 314 1428 317 1428 l 551 1308 b 561 1310 554 1307 558 1306 l 589 1346 b 588 1356 592 1350 592 1353 l 319 1529 b 311 1529 317 1531 314 1531 l 43 1356 b 42 1346 39 1353 39 1350 l 69 1310 b 79 1308 72 1306 76 1307 z m 76 0 l 550 0 b 557 7 554 0 557 3 l 557 46 b 550 53 557 50 554 53 b 407 264 429 53 407 82 l 407 889 b 550 1100 407 1071 429 1100 b 557 1107 554 1100 557 1103 l 557 1146 b 550 1153 557 1150 554 1153 l 76 1153 b 69 1146 72 1153 69 1150 l 69 1107 b 76 1100 69 1103 72 1100 b 219 889 197 1100 219 1071 l 219 264 b 76 53 219 82 197 53 b 69 46 72 53 69 50 l 69 7 b 76 0 69 3 72 0 z "},"Ï":{"ha":626,"x_min":0,"x_max":0,"o":"m 183 1322 b 274 1413 238 1322 274 1358 b 183 1503 274 1465 238 1503 b 92 1413 128 1503 92 1465 b 183 1322 92 1358 128 1322 z m 460 1322 b 550 1413 514 1322 550 1358 b 460 1503 550 1465 514 1503 b 368 1413 404 1503 368 1465 b 460 1322 368 1358 404 1322 z m 76 0 l 550 0 b 557 7 554 0 557 3 l 557 46 b 550 53 557 50 554 53 b 407 264 429 53 407 82 l 407 889 b 550 1100 407 1071 429 1100 b 557 1107 554 1100 557 1103 l 557 1146 b 550 1153 557 1150 554 1153 l 76 1153 b 69 1146 72 1153 69 1150 l 69 1107 b 76 1100 69 1103 72 1100 b 219 889 197 1100 219 1071 l 219 264 b 76 53 219 82 197 53 b 69 46 72 53 69 50 l 69 7 b 76 0 69 3 72 0 z "},"Ì":{"ha":626,"x_min":0,"x_max":0,"o":"m 539 1308 b 549 1313 543 1307 547 1308 l 560 1349 b 556 1358 561 1353 560 1357 l 88 1519 b 78 1515 83 1521 79 1519 l 58 1442 b 63 1432 57 1438 58 1433 z m 76 0 l 550 0 b 557 7 554 0 557 3 l 557 46 b 550 53 557 50 554 53 b 407 264 429 53 407 82 l 407 889 b 550 1100 407 1071 429 1100 b 557 1107 554 1100 557 1103 l 557 1146 b 550 1153 557 1150 554 1153 l 76 1153 b 69 1146 72 1153 69 1150 l 69 1107 b 76 1100 69 1103 72 1100 b 219 889 197 1100 219 1071 l 219 264 b 76 53 219 82 197 53 b 69 46 72 53 69 50 l 69 7 b 76 0 69 3 72 0 z "},"J":{"ha":601,"x_min":0,"x_max":0,"o":"m 63 -353 b 396 42 292 -306 396 -181 l 396 889 b 539 1100 396 1071 418 1100 b 546 1107 543 1100 546 1103 l 546 1146 b 539 1153 546 1150 543 1153 l 65 1153 b 58 1146 61 1153 58 1150 l 58 1107 b 65 1100 58 1103 61 1100 b 208 889 186 1100 208 1071 l 208 -14 b 61 -300 208 -171 158 -268 b 56 -307 57 -301 56 -303 l 56 -346 b 63 -353 56 -350 58 -354 z "},"K":{"ha":1347,"x_min":0,"x_max":0,"o":"m 1314 53 b 1056 221 1218 53 1156 68 l 868 507 b 706 618 813 592 772 618 b 651 614 689 618 671 617 l 651 626 l 911 947 b 1190 1100 1025 1089 1094 1100 b 1196 1107 1194 1100 1196 1103 l 1196 1146 b 1190 1153 1196 1150 1194 1153 l 824 1153 b 815 1146 818 1153 815 1150 l 815 1107 b 824 1100 815 1103 818 1100 b 843 947 981 1100 958 1089 l 393 392 l 379 392 b 407 497 404 421 407 454 l 407 889 b 550 1100 407 1071 429 1100 b 557 1107 554 1100 557 1103 l 557 1146 b 550 1153 557 1150 554 1153 l 76 1153 b 69 1146 72 1153 69 1150 l 69 1107 b 76 1100 69 1103 72 1100 b 219 889 197 1100 219 1071 l 219 264 b 76 53 219 82 197 53 b 69 46 72 53 69 50 l 69 7 b 76 0 69 3 72 0 l 550 0 b 557 7 554 0 557 3 l 557 46 b 550 53 557 50 554 53 b 407 264 429 53 407 82 l 407 325 l 604 568 l 832 221 b 819 53 932 68 951 53 b 811 46 814 53 811 50 l 811 7 b 819 0 811 3 814 0 l 1314 0 b 1319 7 1318 0 1319 3 l 1319 46 b 1314 53 1319 50 1318 53 z "},"L":{"ha":1001,"x_min":0,"x_max":0,"o":"m 904 210 b 896 204 900 211 896 208 b 647 53 865 88 829 53 l 421 53 b 328 39 376 53 358 50 l 328 53 b 407 289 403 92 407 149 l 407 889 b 550 1100 407 1071 429 1100 b 557 1107 554 1100 557 1103 l 557 1146 b 550 1153 557 1150 554 1153 l 76 1153 b 69 1146 72 1153 69 1150 l 69 1107 b 76 1100 69 1103 72 1100 b 219 889 197 1100 219 1071 l 219 264 b 76 53 219 82 197 53 b 69 46 72 53 69 50 l 69 7 b 76 0 69 3 72 0 l 814 0 b 863 -21 835 0 863 0 b 869 -28 863 -25 865 -28 l 886 -28 b 892 -24 889 -28 890 -26 l 904 26 l 946 192 b 942 200 947 196 946 199 z "},"M":{"ha":1810,"x_min":0,"x_max":0,"o":"m 860 -6 b 888 -6 867 -19 881 -19 l 1389 1047 l 1403 1047 l 1403 264 b 1260 53 1403 82 1381 53 b 1253 46 1256 53 1253 50 l 1253 7 b 1260 0 1253 3 1256 0 l 1733 0 b 1740 7 1738 0 1740 3 l 1740 46 b 1733 53 1740 50 1738 53 b 1590 264 1613 53 1590 82 l 1590 889 b 1733 1100 1590 1071 1613 1100 b 1740 1107 1738 1100 1740 1103 l 1740 1146 b 1733 1153 1740 1150 1738 1153 l 1408 1153 b 1369 1129 1392 1153 1376 1144 l 929 203 l 915 203 b 925 251 922 222 925 238 b 906 313 925 275 917 292 l 481 1131 b 443 1153 474 1144 458 1153 l 76 1153 b 69 1146 72 1153 69 1150 l 69 1107 b 76 1100 69 1103 72 1100 b 219 889 197 1100 219 1071 l 219 264 b 76 53 219 82 197 53 b 69 46 72 53 69 50 l 69 7 b 76 0 69 3 72 0 l 418 0 b 425 7 422 0 425 3 l 425 46 b 418 53 425 50 422 53 b 275 264 297 53 275 82 l 275 950 b 235 1089 275 1049 268 1064 l 235 1103 b 313 1046 271 1096 290 1089 z "},"N":{"ha":1392,"x_min":0,"x_max":0,"o":"m 1315 1153 l 974 1153 b 967 1146 969 1153 967 1150 l 967 1107 b 974 1100 967 1103 969 1100 b 1117 889 1094 1100 1117 1071 l 1117 265 l 1103 265 b 1078 343 1103 306 1093 322 l 474 1133 b 431 1153 461 1150 454 1153 l 76 1153 b 69 1146 72 1153 69 1150 l 69 1107 b 76 1100 69 1103 72 1100 b 219 889 197 1100 219 1071 l 219 264 b 76 53 219 82 197 53 b 69 46 72 53 69 50 l 69 7 b 76 0 69 3 72 0 l 418 0 b 425 7 422 0 425 3 l 425 46 b 418 53 425 50 422 53 b 275 264 297 53 275 82 l 275 894 b 238 1089 275 1035 271 1064 l 238 1103 b 346 992 274 1089 294 1058 l 1093 14 b 1117 0 1100 4 1108 0 l 1165 0 b 1172 7 1169 0 1172 3 l 1172 889 b 1315 1100 1172 1071 1194 1100 b 1322 1107 1319 1100 1322 1103 l 1322 1146 b 1315 1153 1322 1150 1319 1153 z "},"Ñ":{"ha":1392,"x_min":0,"x_max":0,"o":"m 460 1310 b 469 1319 463 1310 471 1310 b 525 1435 461 1376 453 1435 b 858 1296 638 1435 717 1296 b 985 1414 944 1296 985 1347 b 965 1507 985 1443 975 1488 b 958 1513 964 1510 963 1513 l 914 1513 b 907 1500 910 1513 904 1513 b 867 1388 911 1476 940 1388 b 539 1526 774 1388 686 1526 b 396 1389 446 1526 396 1471 b 411 1315 396 1365 401 1344 b 421 1310 413 1310 418 1310 z m 1315 1153 l 974 1153 b 967 1146 969 1153 967 1150 l 967 1107 b 974 1100 967 1103 969 1100 b 1117 889 1094 1100 1117 1071 l 1117 265 l 1103 265 b 1078 343 1103 306 1093 322 l 474 1133 b 431 1153 461 1150 454 1153 l 76 1153 b 69 1146 72 1153 69 1150 l 69 1107 b 76 1100 69 1103 72 1100 b 219 889 197 1100 219 1071 l 219 264 b 76 53 219 82 197 53 b 69 46 72 53 69 50 l 69 7 b 76 0 69 3 72 0 l 418 0 b 425 7 422 0 425 3 l 425 46 b 418 53 425 50 422 53 b 275 264 297 53 275 82 l 275 894 b 238 1089 275 1035 271 1064 l 238 1103 b 346 992 274 1089 294 1058 l 1093 14 b 1117 0 1100 4 1108 0 l 1165 0 b 1172 7 1169 0 1172 3 l 1172 889 b 1315 1100 1172 1071 1194 1100 b 1322 1107 1319 1100 1322 1103 l 1322 1146 b 1315 1153 1322 1150 1319 1153 z "},"O":{"ha":1326,"x_min":0,"x_max":0,"o":"m 664 -14 b 1243 576 1028 -14 1243 206 b 664 1167 1243 947 1028 1167 b 83 576 299 1167 83 947 b 664 -14 83 206 299 -14 z m 664 39 b 276 576 410 39 276 224 b 664 1114 276 929 410 1114 b 1049 576 917 1114 1049 929 b 664 39 1049 224 917 39 z "},"Ó":{"ha":1326,"x_min":0,"x_max":0,"o":"m 921 1432 b 925 1442 925 1433 926 1438 l 906 1515 b 896 1519 904 1519 900 1521 l 428 1358 b 424 1349 424 1357 422 1353 l 435 1313 b 444 1308 436 1308 440 1307 z m 664 -14 b 1243 576 1028 -14 1243 206 b 664 1167 1243 947 1028 1167 b 83 576 299 1167 83 947 b 664 -14 83 206 299 -14 z m 664 39 b 276 576 410 39 276 224 b 664 1114 276 929 410 1114 b 1049 576 917 1114 1049 929 b 664 39 1049 224 917 39 z "},"Ô":{"ha":1326,"x_min":0,"x_max":0,"o":"m 661 1426 b 669 1426 664 1428 667 1428 l 901 1308 b 911 1310 904 1307 908 1306 l 939 1346 b 938 1356 942 1350 942 1353 l 669 1529 b 661 1529 667 1531 664 1531 l 393 1356 b 392 1346 389 1353 389 1350 l 419 1310 b 429 1308 422 1306 426 1307 z m 664 -14 b 1243 576 1028 -14 1243 206 b 664 1167 1243 947 1028 1167 b 83 576 299 1167 83 947 b 664 -14 83 206 299 -14 z m 664 39 b 276 576 410 39 276 224 b 664 1114 276 929 410 1114 b 1049 576 917 1114 1049 929 b 664 39 1049 224 917 39 z "},"Ö":{"ha":1326,"x_min":0,"x_max":0,"o":"m 533 1322 b 624 1413 588 1322 624 1358 b 533 1503 624 1465 588 1503 b 442 1413 478 1503 442 1465 b 533 1322 442 1358 478 1322 z m 810 1322 b 900 1413 864 1322 900 1358 b 810 1503 900 1465 864 1503 b 718 1413 754 1503 718 1465 b 810 1322 718 1358 754 1322 z m 664 -14 b 1243 576 1028 -14 1243 206 b 664 1167 1243 947 1028 1167 b 83 576 299 1167 83 947 b 664 -14 83 206 299 -14 z m 664 39 b 276 576 410 39 276 224 b 664 1114 276 929 410 1114 b 1049 576 917 1114 1049 929 b 664 39 1049 224 917 39 z "},"Ò":{"ha":1326,"x_min":0,"x_max":0,"o":"m 889 1308 b 899 1313 893 1307 897 1308 l 910 1349 b 906 1358 911 1353 910 1357 l 438 1519 b 428 1515 433 1521 429 1519 l 408 1442 b 413 1432 407 1438 408 1433 z m 664 -14 b 1243 576 1028 -14 1243 206 b 664 1167 1243 947 1028 1167 b 83 576 299 1167 83 947 b 664 -14 83 206 299 -14 z m 664 39 b 276 576 410 39 276 224 b 664 1114 276 929 410 1114 b 1049 576 917 1114 1049 929 b 664 39 1049 224 917 39 z "},"Õ":{"ha":1326,"x_min":0,"x_max":0,"o":"m 826 1296 b 953 1414 913 1296 953 1347 b 933 1507 953 1443 943 1488 b 926 1513 932 1510 931 1513 l 882 1513 b 875 1500 878 1513 872 1513 b 835 1388 879 1476 908 1388 b 507 1526 742 1388 654 1526 b 364 1389 414 1526 364 1471 b 379 1315 364 1365 369 1344 b 389 1310 381 1310 386 1310 l 428 1310 b 438 1319 431 1310 439 1310 b 493 1435 429 1376 421 1435 b 826 1296 606 1435 685 1296 z m 664 -14 b 1243 576 1028 -14 1243 206 b 664 1167 1243 947 1028 1167 b 83 576 299 1167 83 947 b 664 -14 83 206 299 -14 z m 664 39 b 276 576 410 39 276 224 b 664 1114 276 929 410 1114 b 1049 576 917 1114 1049 929 b 664 39 1049 224 917 39 z "},"Œ":{"ha":1939,"x_min":0,"x_max":0,"o":"m 1842 271 b 1832 263 1838 272 1833 268 b 1571 42 1790 86 1753 42 l 1317 42 l 1317 556 l 1431 556 b 1642 442 1613 556 1642 538 b 1649 436 1642 438 1644 436 l 1688 436 b 1694 442 1692 436 1694 438 l 1694 711 b 1688 717 1694 715 1692 717 l 1649 717 b 1642 711 1644 717 1642 715 b 1431 597 1642 615 1613 597 l 1317 597 l 1317 875 b 1238 1111 1317 1015 1313 1072 l 1238 1125 b 1317 1111 1275 1111 1289 1111 l 1543 1111 b 1804 890 1725 1111 1763 1067 b 1814 882 1806 885 1810 881 l 1851 890 b 1856 903 1856 892 1857 896 l 1797 1151 l 1792 1176 b 1786 1181 1790 1179 1789 1181 l 1769 1181 b 1763 1174 1765 1181 1763 1178 b 1714 1153 1763 1153 1735 1153 l 1072 1153 b 1068 1146 1069 1153 1068 1150 l 1068 1107 b 1072 1100 1068 1103 1069 1100 b 1143 946 1125 1100 1140 1078 b 664 1167 1046 1089 881 1167 b 83 576 299 1167 83 947 b 664 -14 83 206 299 -14 b 1143 207 881 -14 1046 64 b 1072 53 1140 75 1125 53 b 1068 46 1069 53 1068 50 l 1068 7 b 1072 0 1068 3 1069 0 l 1742 0 b 1790 -21 1763 0 1790 0 b 1797 -28 1790 -25 1793 -28 l 1814 -28 b 1819 -24 1817 -28 1818 -26 l 1825 1 l 1883 250 b 1879 263 1885 257 1883 261 z m 664 39 b 276 576 410 39 276 224 b 664 1114 276 929 410 1114 b 1049 576 917 1114 1049 929 b 664 39 1049 224 917 39 z "},"P":{"ha":1086,"x_min":0,"x_max":0,"o":"m 610 1153 l 63 1153 b 56 1146 58 1153 56 1150 l 56 1107 b 63 1100 56 1103 58 1100 b 206 889 183 1100 206 1071 l 206 264 b 63 53 206 82 183 53 b 56 46 58 53 56 50 l 56 7 b 63 0 56 3 58 0 l 536 0 b 543 7 540 0 543 3 l 543 46 b 536 53 543 50 540 53 b 393 264 415 53 393 82 l 393 453 l 610 453 b 1031 806 886 453 1031 574 b 610 1153 1031 1033 886 1153 z m 393 506 l 393 864 b 314 1100 393 1004 389 1061 l 314 1114 b 407 1100 346 1103 364 1100 l 575 1100 b 836 806 761 1100 836 1015 b 610 506 836 592 771 506 z "},"Q":{"ha":1272,"x_min":0,"x_max":0,"o":"m 638 -14 b 1217 576 985 -14 1217 222 b 638 1167 1217 931 985 1167 b 56 576 289 1167 56 931 b 407 25 56 307 190 107 l 181 -308 b 174 -326 176 -315 174 -321 b 197 -347 174 -339 185 -347 l 1028 -347 b 1035 -340 1032 -347 1035 -344 l 1035 -162 b 1028 -156 1035 -158 1032 -156 l 493 -156 b 322 -212 403 -156 364 -156 l 308 -212 l 460 8 b 638 -14 514 -6 574 -14 z m 250 576 b 638 1114 250 929 383 1114 b 981 869 807 1114 922 1031 l 447 85 b 250 576 317 160 250 326 z m 638 39 b 496 63 585 39 538 47 l 999 803 b 1022 576 1014 738 1022 661 b 638 39 1022 224 890 39 z "},"R":{"ha":1253,"x_min":0,"x_max":0,"o":"m 1218 53 b 972 278 1067 53 1011 111 b 789 568 919 506 904 550 l 789 582 b 1017 856 932 619 1017 715 b 596 1153 1017 1043 860 1153 l 76 1153 b 69 1146 72 1153 69 1150 l 69 1107 b 76 1100 69 1103 72 1100 b 219 889 197 1100 219 1071 l 219 264 b 76 53 219 82 197 53 b 69 46 72 53 69 50 l 69 7 b 76 0 69 3 72 0 l 550 0 b 557 7 554 0 557 3 l 557 46 b 550 53 557 50 554 53 b 407 264 429 53 407 82 l 407 633 l 421 633 b 638 564 483 592 533 564 l 644 564 b 786 271 743 565 736 535 b 1133 0 832 26 940 0 l 1218 0 b 1225 7 1222 0 1225 3 l 1225 46 b 1218 53 1225 50 1222 53 z m 617 617 b 407 689 521 617 467 647 l 407 858 b 328 1100 407 999 403 1061 l 328 1114 b 407 1100 365 1100 379 1100 l 561 1100 b 822 856 733 1100 822 1017 b 617 617 822 699 751 617 z "},"S":{"ha":1018,"x_min":0,"x_max":0,"o":"m 532 -14 b 963 304 793 -14 963 99 b 539 706 963 482 838 586 b 247 940 367 774 247 804 b 474 1114 247 1058 338 1114 b 717 872 646 1114 717 1026 l 715 850 b 731 832 714 840 721 833 l 878 806 b 894 817 886 804 893 808 b 481 1167 917 922 838 1167 b 94 885 289 1167 94 1096 b 461 519 94 725 206 631 b 810 243 681 424 810 399 b 525 39 810 111 717 39 b 238 265 315 39 238 126 b 250 368 238 297 243 336 b 233 386 251 376 246 383 l 79 413 b 63 403 71 414 64 410 b 56 336 57 382 56 356 b 532 -14 56 122 246 -14 z "},"T":{"ha":1251,"x_min":0,"x_max":0,"o":"m 1146 1140 l 1139 1176 b 1133 1181 1138 1179 1136 1181 l 1117 1181 b 1110 1174 1113 1181 1110 1178 b 1061 1153 1110 1153 1082 1153 l 178 1153 b 142 1172 157 1153 142 1153 b 133 1181 142 1178 138 1181 l 118 1181 b 113 1176 115 1181 114 1179 l 106 1140 l 56 890 b 60 878 54 883 56 879 l 99 871 b 107 879 103 869 106 874 b 361 1100 143 1057 179 1100 l 585 1100 b 664 1114 613 1100 629 1103 l 664 1100 b 532 864 533 1061 532 1004 l 532 264 b 346 53 532 82 503 53 b 338 46 340 53 338 50 l 338 7 b 346 0 338 3 340 0 l 906 0 b 914 7 911 0 914 3 l 914 46 b 906 53 914 50 911 53 b 719 264 749 53 719 82 l 719 1001 b 789 1100 719 1068 713 1100 l 890 1100 b 1144 879 1072 1100 1108 1057 b 1153 871 1146 874 1149 869 l 1192 878 b 1196 890 1196 879 1197 883 z "},"U":{"ha":1321,"x_min":0,"x_max":0,"o":"m 1272 1153 l 933 1153 b 926 1146 929 1153 926 1150 l 926 1107 b 933 1100 926 1103 929 1100 b 1076 889 1054 1100 1076 1071 l 1076 419 b 688 39 1076 147 965 39 b 379 419 467 39 379 147 l 379 889 b 522 1100 379 1071 401 1100 b 529 1107 526 1100 529 1103 l 529 1146 b 522 1153 529 1150 526 1153 l 49 1153 b 42 1146 44 1153 42 1150 l 42 1107 b 49 1100 42 1103 44 1100 b 192 889 169 1100 192 1071 l 192 443 b 688 -14 192 129 347 -14 b 1129 429 990 -14 1129 125 l 1129 889 b 1272 1100 1129 1071 1151 1100 b 1279 1107 1276 1100 1279 1103 l 1279 1146 b 1272 1153 1279 1150 1276 1153 z "},"Ú":{"ha":1321,"x_min":0,"x_max":0,"o":"m 432 1313 b 442 1308 433 1308 438 1307 l 918 1432 b 922 1442 922 1433 924 1438 l 903 1515 b 893 1519 901 1519 897 1521 l 425 1358 b 421 1349 421 1357 419 1353 z m 1272 1153 l 933 1153 b 926 1146 929 1153 926 1150 l 926 1107 b 933 1100 926 1103 929 1100 b 1076 889 1054 1100 1076 1071 l 1076 419 b 688 39 1076 147 965 39 b 379 419 467 39 379 147 l 379 889 b 522 1100 379 1071 401 1100 b 529 1107 526 1100 529 1103 l 529 1146 b 522 1153 529 1150 526 1153 l 49 1153 b 42 1146 44 1153 42 1150 l 42 1107 b 49 1100 42 1103 44 1100 b 192 889 169 1100 192 1071 l 192 443 b 688 -14 192 129 347 -14 b 1129 429 990 -14 1129 125 l 1129 889 b 1272 1100 1129 1071 1151 1100 b 1279 1107 1276 1100 1279 1103 l 1279 1146 b 1272 1153 1279 1150 1276 1153 z "},"Û":{"ha":1321,"x_min":0,"x_max":0,"o":"m 417 1310 b 426 1308 419 1306 424 1307 l 658 1426 b 667 1426 661 1428 664 1428 l 899 1308 b 908 1310 901 1307 906 1306 l 936 1346 b 935 1356 939 1350 939 1353 l 667 1529 b 658 1529 664 1531 661 1531 l 390 1356 b 389 1346 386 1353 386 1350 z m 1272 1153 l 933 1153 b 926 1146 929 1153 926 1150 l 926 1107 b 933 1100 926 1103 929 1100 b 1076 889 1054 1100 1076 1071 l 1076 419 b 688 39 1076 147 965 39 b 379 419 467 39 379 147 l 379 889 b 522 1100 379 1071 401 1100 b 529 1107 526 1100 529 1103 l 529 1146 b 522 1153 529 1150 526 1153 l 49 1153 b 42 1146 44 1153 42 1150 l 42 1107 b 49 1100 42 1103 44 1100 b 192 889 169 1100 192 1071 l 192 443 b 688 -14 192 129 347 -14 b 1129 429 990 -14 1129 125 l 1129 889 b 1272 1100 1129 1071 1151 1100 b 1279 1107 1276 1100 1279 1103 l 1279 1146 b 1272 1153 1279 1150 1276 1153 z "},"Ü":{"ha":1321,"x_min":0,"x_max":0,"o":"m 531 1322 b 621 1413 585 1322 621 1358 b 531 1503 621 1465 585 1503 b 439 1413 475 1503 439 1465 b 531 1322 439 1358 475 1322 z m 807 1322 b 897 1413 861 1322 897 1358 b 807 1503 897 1465 861 1503 b 715 1413 751 1503 715 1465 b 807 1322 715 1358 751 1322 z m 1272 1153 l 933 1153 b 926 1146 929 1153 926 1150 l 926 1107 b 933 1100 926 1103 929 1100 b 1076 889 1054 1100 1076 1071 l 1076 419 b 688 39 1076 147 965 39 b 379 419 467 39 379 147 l 379 889 b 522 1100 379 1071 401 1100 b 529 1107 526 1100 529 1103 l 529 1146 b 522 1153 529 1150 526 1153 l 49 1153 b 42 1146 44 1153 42 1150 l 42 1107 b 49 1100 42 1103 44 1100 b 192 889 169 1100 192 1071 l 192 443 b 688 -14 192 129 347 -14 b 1129 429 990 -14 1129 125 l 1129 889 b 1272 1100 1129 1071 1151 1100 b 1279 1107 1276 1100 1279 1103 l 1279 1146 b 1272 1153 1279 1150 1276 1153 z "},"Ù":{"ha":1321,"x_min":0,"x_max":0,"o":"m 886 1308 b 896 1313 890 1307 894 1308 l 907 1349 b 903 1358 908 1353 907 1357 l 435 1519 b 425 1515 431 1521 426 1519 l 406 1442 b 410 1432 404 1438 406 1433 z m 1272 1153 l 933 1153 b 926 1146 929 1153 926 1150 l 926 1107 b 933 1100 926 1103 929 1100 b 1076 889 1054 1100 1076 1071 l 1076 419 b 688 39 1076 147 965 39 b 379 419 467 39 379 147 l 379 889 b 522 1100 379 1071 401 1100 b 529 1107 526 1100 529 1103 l 529 1146 b 522 1153 529 1150 526 1153 l 49 1153 b 42 1146 44 1153 42 1150 l 42 1107 b 49 1100 42 1103 44 1100 b 192 889 169 1100 192 1071 l 192 443 b 688 -14 192 129 347 -14 b 1129 429 990 -14 1129 125 l 1129 889 b 1272 1100 1129 1071 1151 1100 b 1279 1107 1276 1100 1279 1103 l 1279 1146 b 1272 1153 1279 1150 1276 1153 z "},"V":{"ha":1414,"x_min":0,"x_max":0,"o":"m 813 0 l 1158 907 b 1367 1100 1224 1076 1271 1100 b 1372 1107 1371 1100 1372 1103 l 1372 1146 b 1367 1153 1372 1150 1371 1153 l 1051 1153 b 1044 1146 1047 1153 1044 1150 l 1044 1107 b 1051 1100 1044 1103 1047 1100 b 1101 906 1172 1100 1165 1076 l 796 97 b 788 56 790 82 788 71 l 774 56 b 765 97 774 71 771 82 l 457 906 b 506 1100 392 1076 385 1100 b 513 1107 510 1100 513 1103 l 513 1146 b 506 1153 513 1150 510 1153 l 47 1153 b 42 1146 43 1153 42 1150 l 42 1107 b 47 1100 42 1103 43 1100 b 256 907 143 1100 190 1076 l 604 0 z "},"W":{"ha":2103,"x_min":0,"x_max":0,"o":"m 2056 1153 l 1742 1153 b 1735 1146 1738 1153 1735 1150 l 1735 1107 b 1742 1100 1735 1103 1738 1100 b 1793 906 1863 1100 1856 1076 l 1492 100 b 1483 58 1486 85 1483 74 l 1469 58 b 1461 100 1469 74 1467 85 l 1175 904 b 1229 1100 1114 1075 1108 1100 b 1236 1107 1233 1100 1236 1103 l 1236 1146 b 1229 1153 1236 1150 1233 1153 l 771 1153 b 765 1146 767 1153 765 1150 l 765 1107 b 771 1100 765 1103 767 1100 b 974 904 867 1100 913 1075 l 1040 719 l 797 100 b 789 58 792 85 789 74 l 775 58 b 767 100 775 74 772 85 l 457 907 b 506 1100 392 1076 385 1100 b 513 1107 510 1100 513 1103 l 513 1146 b 506 1153 513 1150 510 1153 l 47 1153 b 42 1146 43 1153 42 1150 l 42 1107 b 47 1100 42 1103 43 1100 b 256 907 143 1100 190 1076 l 606 0 l 814 0 l 1068 642 l 1300 0 l 1508 0 l 1849 906 b 2056 1100 1913 1076 1960 1100 b 2061 1107 2060 1100 2061 1103 l 2061 1146 b 2056 1153 2061 1150 2060 1153 z "},"Ẃ":{"ha":2103,"x_min":0,"x_max":0,"o":"m 824 1313 b 833 1308 825 1308 829 1307 l 1310 1432 b 1314 1442 1314 1433 1315 1438 l 1294 1515 b 1285 1519 1293 1519 1289 1521 l 817 1358 b 813 1349 813 1357 811 1353 z m 2056 1153 l 1742 1153 b 1735 1146 1738 1153 1735 1150 l 1735 1107 b 1742 1100 1735 1103 1738 1100 b 1793 906 1863 1100 1856 1076 l 1492 100 b 1483 58 1486 85 1483 74 l 1469 58 b 1461 100 1469 74 1467 85 l 1175 904 b 1229 1100 1114 1075 1108 1100 b 1236 1107 1233 1100 1236 1103 l 1236 1146 b 1229 1153 1236 1150 1233 1153 l 771 1153 b 765 1146 767 1153 765 1150 l 765 1107 b 771 1100 765 1103 767 1100 b 974 904 867 1100 913 1075 l 1040 719 l 797 100 b 789 58 792 85 789 74 l 775 58 b 767 100 775 74 772 85 l 457 907 b 506 1100 392 1076 385 1100 b 513 1107 510 1100 513 1103 l 513 1146 b 506 1153 513 1150 510 1153 l 47 1153 b 42 1146 43 1153 42 1150 l 42 1107 b 47 1100 42 1103 43 1100 b 256 907 143 1100 190 1076 l 606 0 l 814 0 l 1068 642 l 1300 0 l 1508 0 l 1849 906 b 2056 1100 1913 1076 1960 1100 b 2061 1107 2060 1100 2061 1103 l 2061 1146 b 2056 1153 2061 1150 2060 1153 z "},"Ŵ":{"ha":2103,"x_min":0,"x_max":0,"o":"m 808 1310 b 818 1308 811 1306 815 1307 l 1050 1426 b 1058 1426 1053 1428 1056 1428 l 1290 1308 b 1300 1310 1293 1307 1297 1306 l 1328 1346 b 1326 1356 1331 1350 1331 1353 l 1058 1529 b 1050 1529 1056 1531 1053 1531 l 782 1356 b 781 1346 778 1353 778 1350 z m 2056 1153 l 1742 1153 b 1735 1146 1738 1153 1735 1150 l 1735 1107 b 1742 1100 1735 1103 1738 1100 b 1793 906 1863 1100 1856 1076 l 1492 100 b 1483 58 1486 85 1483 74 l 1469 58 b 1461 100 1469 74 1467 85 l 1175 904 b 1229 1100 1114 1075 1108 1100 b 1236 1107 1233 1100 1236 1103 l 1236 1146 b 1229 1153 1236 1150 1233 1153 l 771 1153 b 765 1146 767 1153 765 1150 l 765 1107 b 771 1100 765 1103 767 1100 b 974 904 867 1100 913 1075 l 1040 719 l 797 100 b 789 58 792 85 789 74 l 775 58 b 767 100 775 74 772 85 l 457 907 b 506 1100 392 1076 385 1100 b 513 1107 510 1100 513 1103 l 513 1146 b 506 1153 513 1150 510 1153 l 47 1153 b 42 1146 43 1153 42 1150 l 42 1107 b 47 1100 42 1103 43 1100 b 256 907 143 1100 190 1076 l 606 0 l 814 0 l 1068 642 l 1300 0 l 1508 0 l 1849 906 b 2056 1100 1913 1076 1960 1100 b 2061 1107 2060 1100 2061 1103 l 2061 1146 b 2056 1153 2061 1150 2060 1153 z "},"Ẅ":{"ha":2103,"x_min":0,"x_max":0,"o":"m 922 1322 b 1013 1413 976 1322 1013 1358 b 922 1503 1013 1465 976 1503 b 831 1413 867 1503 831 1465 b 922 1322 831 1358 867 1322 z m 1199 1322 b 1289 1413 1253 1322 1289 1358 b 1199 1503 1289 1465 1253 1503 b 1107 1413 1143 1503 1107 1465 b 1199 1322 1107 1358 1143 1322 z m 2056 1153 l 1742 1153 b 1735 1146 1738 1153 1735 1150 l 1735 1107 b 1742 1100 1735 1103 1738 1100 b 1793 906 1863 1100 1856 1076 l 1492 100 b 1483 58 1486 85 1483 74 l 1469 58 b 1461 100 1469 74 1467 85 l 1175 904 b 1229 1100 1114 1075 1108 1100 b 1236 1107 1233 1100 1236 1103 l 1236 1146 b 1229 1153 1236 1150 1233 1153 l 771 1153 b 765 1146 767 1153 765 1150 l 765 1107 b 771 1100 765 1103 767 1100 b 974 904 867 1100 913 1075 l 1040 719 l 797 100 b 789 58 792 85 789 74 l 775 58 b 767 100 775 74 772 85 l 457 907 b 506 1100 392 1076 385 1100 b 513 1107 510 1100 513 1103 l 513 1146 b 506 1153 513 1150 510 1153 l 47 1153 b 42 1146 43 1153 42 1150 l 42 1107 b 47 1100 42 1103 43 1100 b 256 907 143 1100 190 1076 l 606 0 l 814 0 l 1068 642 l 1300 0 l 1508 0 l 1849 906 b 2056 1100 1913 1076 1960 1100 b 2061 1107 2060 1100 2061 1103 l 2061 1146 b 2056 1153 2061 1150 2060 1153 z "},"Ẁ":{"ha":2103,"x_min":0,"x_max":0,"o":"m 1278 1308 b 1288 1313 1282 1307 1286 1308 l 1299 1349 b 1294 1358 1300 1353 1299 1357 l 826 1519 b 817 1515 822 1521 818 1519 l 797 1442 b 801 1432 796 1438 797 1433 z m 2056 1153 l 1742 1153 b 1735 1146 1738 1153 1735 1150 l 1735 1107 b 1742 1100 1735 1103 1738 1100 b 1793 906 1863 1100 1856 1076 l 1492 100 b 1483 58 1486 85 1483 74 l 1469 58 b 1461 100 1469 74 1467 85 l 1175 904 b 1229 1100 1114 1075 1108 1100 b 1236 1107 1233 1100 1236 1103 l 1236 1146 b 1229 1153 1236 1150 1233 1153 l 771 1153 b 765 1146 767 1153 765 1150 l 765 1107 b 771 1100 765 1103 767 1100 b 974 904 867 1100 913 1075 l 1040 719 l 797 100 b 789 58 792 85 789 74 l 775 58 b 767 100 775 74 772 85 l 457 907 b 506 1100 392 1076 385 1100 b 513 1107 510 1100 513 1103 l 513 1146 b 506 1153 513 1150 510 1153 l 47 1153 b 42 1146 43 1153 42 1150 l 42 1107 b 47 1100 42 1103 43 1100 b 256 907 143 1100 190 1076 l 606 0 l 814 0 l 1068 642 l 1300 0 l 1508 0 l 1849 906 b 2056 1100 1913 1076 1960 1100 b 2061 1107 2060 1100 2061 1103 l 2061 1146 b 2056 1153 2061 1150 2060 1153 z "},"X":{"ha":1300,"x_min":0,"x_max":0,"o":"m 1267 53 b 1015 217 1182 53 1119 67 l 726 631 l 982 947 b 1261 1100 1096 1089 1165 1100 b 1267 1107 1265 1100 1267 1103 l 1267 1146 b 1261 1153 1267 1150 1265 1153 l 938 1153 b 931 1146 933 1153 931 1150 l 931 1107 b 938 1100 931 1103 933 1100 b 915 947 1058 1100 1029 1089 l 696 675 l 514 936 b 506 1100 410 1086 385 1100 b 513 1107 510 1100 513 1103 l 513 1146 b 506 1153 513 1150 510 1153 l 33 1153 b 28 1146 31 1153 28 1150 l 28 1107 b 33 1100 28 1103 31 1100 b 285 936 118 1100 181 1086 l 574 522 l 318 206 b 39 53 204 64 135 53 b 33 46 35 53 33 50 l 33 7 b 39 0 33 3 35 0 l 363 0 b 369 7 367 0 369 3 l 369 46 b 363 53 369 50 367 53 b 385 206 242 53 271 64 l 604 478 l 786 217 b 794 53 890 67 915 53 b 788 46 790 53 788 50 l 788 7 b 794 0 788 3 790 0 l 1267 0 b 1272 7 1269 0 1272 3 l 1272 46 b 1267 53 1272 50 1269 53 z "},"Y":{"ha":1276,"x_min":0,"x_max":0,"o":"m 403 0 l 876 0 b 883 7 881 0 883 3 l 883 46 b 876 53 883 50 881 53 b 733 264 756 53 733 82 l 733 486 l 994 926 b 1243 1100 1088 1082 1147 1100 b 1249 1107 1247 1100 1249 1103 l 1249 1146 b 1243 1153 1249 1150 1247 1153 l 928 1153 b 921 1146 924 1153 921 1150 l 921 1107 b 928 1100 921 1103 924 1100 b 938 925 1049 1100 1029 1082 l 736 583 b 722 542 728 568 722 557 l 708 542 b 696 583 708 557 704 568 l 497 925 b 508 1100 407 1082 388 1100 b 515 1107 513 1100 515 1103 l 515 1146 b 508 1153 515 1150 513 1153 l 33 1153 b 28 1146 29 1153 28 1150 l 28 1107 b 33 1100 28 1103 29 1100 b 281 925 129 1100 189 1082 l 546 469 l 546 264 b 403 53 546 82 524 53 b 396 46 399 53 396 50 l 396 7 b 403 0 396 3 399 0 z "},"Ý":{"ha":1276,"x_min":0,"x_max":0,"o":"m 896 1432 b 900 1442 900 1433 901 1438 l 881 1515 b 871 1519 879 1519 875 1521 l 403 1358 b 399 1349 399 1357 397 1353 l 410 1313 b 419 1308 411 1308 415 1307 z m 403 0 l 876 0 b 883 7 881 0 883 3 l 883 46 b 876 53 883 50 881 53 b 733 264 756 53 733 82 l 733 486 l 994 926 b 1243 1100 1088 1082 1147 1100 b 1249 1107 1247 1100 1249 1103 l 1249 1146 b 1243 1153 1249 1150 1247 1153 l 928 1153 b 921 1146 924 1153 921 1150 l 921 1107 b 928 1100 921 1103 924 1100 b 938 925 1049 1100 1029 1082 l 736 583 b 722 542 728 568 722 557 l 708 542 b 696 583 708 557 704 568 l 497 925 b 508 1100 407 1082 388 1100 b 515 1107 513 1100 515 1103 l 515 1146 b 508 1153 515 1150 513 1153 l 33 1153 b 28 1146 29 1153 28 1150 l 28 1107 b 33 1100 28 1103 29 1100 b 281 925 129 1100 189 1082 l 546 469 l 546 264 b 403 53 546 82 524 53 b 396 46 399 53 396 50 l 396 7 b 403 0 396 3 399 0 z "},"Ŷ":{"ha":1276,"x_min":0,"x_max":0,"o":"m 636 1426 b 644 1426 639 1428 642 1428 l 876 1308 b 886 1310 879 1307 883 1306 l 914 1346 b 913 1356 917 1350 917 1353 l 644 1529 b 636 1529 642 1531 639 1531 l 368 1356 b 367 1346 364 1353 364 1350 l 394 1310 b 404 1308 397 1306 401 1307 z m 403 0 l 876 0 b 883 7 881 0 883 3 l 883 46 b 876 53 883 50 881 53 b 733 264 756 53 733 82 l 733 486 l 994 926 b 1243 1100 1088 1082 1147 1100 b 1249 1107 1247 1100 1249 1103 l 1249 1146 b 1243 1153 1249 1150 1247 1153 l 928 1153 b 921 1146 924 1153 921 1150 l 921 1107 b 928 1100 921 1103 924 1100 b 938 925 1049 1100 1029 1082 l 736 583 b 722 542 728 568 722 557 l 708 542 b 696 583 708 557 704 568 l 497 925 b 508 1100 407 1082 388 1100 b 515 1107 513 1100 515 1103 l 515 1146 b 508 1153 515 1150 513 1153 l 33 1153 b 28 1146 29 1153 28 1150 l 28 1107 b 33 1100 28 1103 29 1100 b 281 925 129 1100 189 1082 l 546 469 l 546 264 b 403 53 546 82 524 53 b 396 46 399 53 396 50 l 396 7 b 403 0 396 3 399 0 z "},"Ÿ":{"ha":1276,"x_min":0,"x_max":0,"o":"m 508 1322 b 599 1413 563 1322 599 1358 b 508 1503 599 1465 563 1503 b 417 1413 453 1503 417 1465 b 508 1322 417 1358 453 1322 z m 785 1322 b 875 1413 839 1322 875 1358 b 785 1503 875 1465 839 1503 b 693 1413 729 1503 693 1465 b 785 1322 693 1358 729 1322 z m 403 0 l 876 0 b 883 7 881 0 883 3 l 883 46 b 876 53 883 50 881 53 b 733 264 756 53 733 82 l 733 486 l 994 926 b 1243 1100 1088 1082 1147 1100 b 1249 1107 1247 1100 1249 1103 l 1249 1146 b 1243 1153 1249 1150 1247 1153 l 928 1153 b 921 1146 924 1153 921 1150 l 921 1107 b 928 1100 921 1103 924 1100 b 938 925 1049 1100 1029 1082 l 736 583 b 722 542 728 568 722 557 l 708 542 b 696 583 708 557 704 568 l 497 925 b 508 1100 407 1082 388 1100 b 515 1107 513 1100 515 1103 l 515 1146 b 508 1153 515 1150 513 1153 l 33 1153 b 28 1146 29 1153 28 1150 l 28 1107 b 33 1100 28 1103 29 1100 b 281 925 129 1100 189 1082 l 546 469 l 546 264 b 403 53 546 82 524 53 b 396 46 399 53 396 50 l 396 7 b 403 0 396 3 399 0 z "},"Ỳ":{"ha":1276,"x_min":0,"x_max":0,"o":"m 864 1308 b 874 1313 868 1307 872 1308 l 885 1349 b 881 1358 886 1353 885 1357 l 413 1519 b 403 1515 408 1521 404 1519 l 383 1442 b 388 1432 382 1438 383 1433 z m 403 0 l 876 0 b 883 7 881 0 883 3 l 883 46 b 876 53 883 50 881 53 b 733 264 756 53 733 82 l 733 486 l 994 926 b 1243 1100 1088 1082 1147 1100 b 1249 1107 1247 1100 1249 1103 l 1249 1146 b 1243 1153 1249 1150 1247 1153 l 928 1153 b 921 1146 924 1153 921 1150 l 921 1107 b 928 1100 921 1103 924 1100 b 938 925 1049 1100 1029 1082 l 736 583 b 722 542 728 568 722 557 l 708 542 b 696 583 708 557 704 568 l 497 925 b 508 1100 407 1082 388 1100 b 515 1107 513 1100 515 1103 l 515 1146 b 508 1153 515 1150 513 1153 l 33 1153 b 28 1146 29 1153 28 1150 l 28 1107 b 33 1100 28 1103 29 1100 b 281 925 129 1100 189 1082 l 546 469 l 546 264 b 403 53 546 82 524 53 b 396 46 399 53 396 50 l 396 7 b 403 0 396 3 399 0 z "},"Z":{"ha":1133,"x_min":0,"x_max":0,"o":"m 1078 1100 l 1078 1153 l 94 1153 l 90 1128 l 64 958 b 69 951 63 954 65 951 l 108 944 b 115 950 113 944 115 946 b 350 1100 135 1069 168 1100 l 789 1100 b 853 1114 822 1100 835 1103 l 853 1100 b 799 1042 832 1089 821 1072 l 56 53 l 56 0 l 1039 0 l 1043 25 l 1069 194 b 1064 201 1071 199 1068 201 l 1025 208 b 1018 203 1021 208 1018 207 b 783 53 999 83 965 53 l 344 53 b 281 39 311 53 299 50 l 281 53 b 335 111 301 64 313 82 z "},"a":{"ha":1050,"x_min":0,"x_max":0,"o":"m 446 -15 b 706 94 543 -15 614 14 l 719 94 b 692 42 701 76 692 57 b 767 0 692 11 711 0 l 1015 0 b 1022 7 1019 0 1022 3 l 1022 46 b 1015 53 1022 50 1019 53 b 872 264 894 53 872 82 l 872 757 b 864 764 872 761 871 764 l 828 764 b 815 758 819 764 817 764 b 710 669 800 690 775 669 b 451 779 615 751 549 779 b 67 382 210 779 67 631 b 446 -15 67 133 207 -15 z m 476 39 b 261 382 335 39 261 157 b 478 725 261 607 335 725 b 715 382 633 725 715 607 b 476 39 715 157 633 39 z "},"á":{"ha":1050,"x_min":0,"x_max":0,"o":"m 772 1043 b 776 1053 776 1044 778 1049 l 757 1126 b 747 1131 756 1131 751 1132 l 279 969 b 275 960 275 968 274 964 l 286 924 b 296 919 288 919 292 918 z m 446 -15 b 706 94 543 -15 614 14 l 719 94 b 692 42 701 76 692 57 b 767 0 692 11 711 0 l 1015 0 b 1022 7 1019 0 1022 3 l 1022 46 b 1015 53 1022 50 1019 53 b 872 264 894 53 872 82 l 872 757 b 864 764 872 761 871 764 l 828 764 b 815 758 819 764 817 764 b 710 669 800 690 775 669 b 451 779 615 751 549 779 b 67 382 210 779 67 631 b 446 -15 67 133 207 -15 z m 476 39 b 261 382 335 39 261 157 b 478 725 261 607 335 725 b 715 382 633 725 715 607 b 476 39 715 157 633 39 z "},"â":{"ha":1050,"x_min":0,"x_max":0,"o":"m 513 1038 b 521 1038 515 1039 518 1039 l 753 919 b 763 921 756 918 760 917 l 790 957 b 789 967 793 961 793 964 l 521 1140 b 513 1140 518 1142 515 1142 l 244 967 b 243 957 240 964 240 961 l 271 921 b 281 919 274 917 278 918 z m 446 -15 b 706 94 543 -15 614 14 l 719 94 b 692 42 701 76 692 57 b 767 0 692 11 711 0 l 1015 0 b 1022 7 1019 0 1022 3 l 1022 46 b 1015 53 1022 50 1019 53 b 872 264 894 53 872 82 l 872 757 b 864 764 872 761 871 764 l 828 764 b 815 758 819 764 817 764 b 710 669 800 690 775 669 b 451 779 615 751 549 779 b 67 382 210 779 67 631 b 446 -15 67 133 207 -15 z m 476 39 b 261 382 335 39 261 157 b 478 725 261 607 335 725 b 715 382 633 725 715 607 b 476 39 715 157 633 39 z "},"ä":{"ha":1050,"x_min":0,"x_max":0,"o":"m 385 933 b 475 1024 439 933 475 969 b 385 1114 475 1076 439 1114 b 293 1024 329 1114 293 1076 b 385 933 293 969 329 933 z m 661 933 b 751 1024 715 933 751 969 b 661 1114 751 1076 715 1114 b 569 1024 606 1114 569 1076 b 661 933 569 969 606 933 z m 446 -15 b 706 94 543 -15 614 14 l 719 94 b 692 42 701 76 692 57 b 767 0 692 11 711 0 l 1015 0 b 1022 7 1019 0 1022 3 l 1022 46 b 1015 53 1022 50 1019 53 b 872 264 894 53 872 82 l 872 757 b 864 764 872 761 871 764 l 828 764 b 815 758 819 764 817 764 b 710 669 800 690 775 669 b 451 779 615 751 549 779 b 67 382 210 779 67 631 b 446 -15 67 133 207 -15 z m 476 39 b 261 382 335 39 261 157 b 478 725 261 607 335 725 b 715 382 633 725 715 607 b 476 39 715 157 633 39 z "},"à":{"ha":1050,"x_min":0,"x_max":0,"o":"m 740 919 b 750 924 744 918 749 919 l 761 960 b 757 969 763 964 761 968 l 289 1131 b 279 1126 285 1132 281 1131 l 260 1053 b 264 1043 258 1049 260 1044 z m 446 -15 b 706 94 543 -15 614 14 l 719 94 b 692 42 701 76 692 57 b 767 0 692 11 711 0 l 1015 0 b 1022 7 1019 0 1022 3 l 1022 46 b 1015 53 1022 50 1019 53 b 872 264 894 53 872 82 l 872 757 b 864 764 872 761 871 764 l 828 764 b 815 758 819 764 817 764 b 710 669 800 690 775 669 b 451 779 615 751 549 779 b 67 382 210 779 67 631 b 446 -15 67 133 207 -15 z m 476 39 b 261 382 335 39 261 157 b 478 725 261 607 335 725 b 715 382 633 725 715 607 b 476 39 715 157 633 39 z "},"ã":{"ha":1050,"x_min":0,"x_max":0,"o":"m 678 907 b 804 1025 764 907 804 958 b 785 1118 804 1054 794 1099 b 778 1124 783 1121 782 1124 l 733 1124 b 726 1111 729 1124 724 1124 b 686 999 731 1088 760 999 b 358 1138 593 999 506 1138 b 215 1000 265 1138 215 1082 b 231 926 215 976 221 956 b 240 921 232 921 238 921 l 279 921 b 289 931 282 921 290 921 b 344 1046 281 988 272 1046 b 678 907 457 1046 536 907 z m 446 -15 b 706 94 543 -15 614 14 l 719 94 b 692 42 701 76 692 57 b 767 0 692 11 711 0 l 1015 0 b 1022 7 1019 0 1022 3 l 1022 46 b 1015 53 1022 50 1019 53 b 872 264 894 53 872 82 l 872 757 b 864 764 872 761 871 764 l 828 764 b 815 758 819 764 817 764 b 710 669 800 690 775 669 b 451 779 615 751 549 779 b 67 382 210 779 67 631 b 446 -15 67 133 207 -15 z m 476 39 b 261 382 335 39 261 157 b 478 725 261 607 335 725 b 715 382 633 725 715 607 b 476 39 715 157 633 39 z "},"b":{"ha":1022,"x_min":0,"x_max":0,"o":"m 538 -15 b 956 393 789 -15 956 149 b 578 779 956 625 804 779 b 317 656 479 779 414 747 l 303 656 b 338 764 333 696 338 729 l 338 1204 b 264 1253 338 1239 318 1253 l 7 1253 b 0 1246 3 1253 0 1250 l 0 1207 b 7 1200 0 1203 3 1200 b 150 989 128 1200 150 1171 l 150 396 b 538 -15 150 125 283 -15 z m 550 38 b 307 369 390 38 307 151 b 551 726 307 603 390 726 b 761 381 689 726 761 607 b 550 38 761 156 689 38 z "},"c":{"ha":951,"x_min":0,"x_max":0,"o":"m 832 246 b 811 207 828 236 819 219 b 522 44 740 96 643 44 b 261 403 342 44 261 160 b 469 725 261 626 329 725 b 657 436 600 725 657 640 b 665 429 657 433 657 431 l 836 397 b 851 404 840 396 851 394 b 476 778 867 628 724 778 b 67 392 231 778 67 629 b 481 -15 67 179 197 -15 b 885 243 678 -15 811 72 b 878 251 888 251 881 251 l 840 251 b 832 246 838 251 835 251 z "},"ç":{"ha":951,"x_min":0,"x_max":0,"o":"m 840 251 b 832 246 838 251 835 251 b 811 207 828 236 819 219 b 522 44 740 96 643 44 b 261 403 342 44 261 160 b 469 725 261 626 329 725 b 657 436 600 725 657 640 b 665 429 657 433 657 431 l 836 397 b 851 404 840 396 851 394 b 476 778 867 628 724 778 b 67 392 231 778 67 629 b 442 -14 67 189 185 3 l 363 -133 l 432 -133 b 551 -189 522 -133 551 -146 b 458 -262 551 -239 514 -262 b 328 -236 418 -262 371 -251 b 318 -243 321 -233 318 -240 l 318 -318 b 324 -325 318 -321 319 -324 b 447 -346 367 -339 408 -346 b 643 -190 558 -346 643 -290 b 464 -86 643 -108 589 -83 l 518 -14 b 885 243 694 -4 815 83 b 878 251 888 251 881 251 z "},"d":{"ha":1064,"x_min":0,"x_max":0,"o":"m 447 -15 b 706 94 535 -15 606 7 l 719 94 b 692 40 700 75 692 56 b 765 0 692 11 713 0 l 1015 0 b 1022 7 1019 0 1022 3 l 1022 46 b 1015 53 1022 50 1019 53 b 872 264 894 53 872 82 l 872 1204 b 797 1253 872 1240 850 1253 l 542 1253 b 535 1246 538 1253 535 1250 l 535 1207 b 542 1200 535 1203 538 1200 b 685 989 663 1200 685 1171 l 685 764 b 719 656 685 717 692 694 l 706 656 b 447 779 610 746 544 779 b 67 383 219 779 67 619 b 447 -15 67 144 219 -15 z m 472 38 b 261 382 333 38 261 156 b 471 726 261 607 333 726 b 715 382 618 726 715 589 b 472 38 715 156 632 38 z "},"e":{"ha":917,"x_min":0,"x_max":0,"o":"m 821 293 b 806 288 811 293 807 292 b 475 56 771 161 672 56 b 250 247 328 56 250 121 b 474 443 250 379 326 443 l 678 443 b 833 560 785 443 833 479 b 469 778 833 711 649 778 b 111 606 276 778 111 724 b 250 483 111 526 174 483 b 285 486 261 483 272 485 l 285 472 l 288 472 b 56 233 168 440 56 369 b 447 -14 56 97 168 -14 b 861 285 667 -14 810 89 b 849 293 863 290 860 293 z m 306 603 b 463 725 306 686 356 725 b 639 496 583 725 639 657 l 465 496 b 357 488 433 496 396 493 b 306 603 326 511 306 553 z "},"é":{"ha":917,"x_min":0,"x_max":0,"o":"m 243 924 b 253 919 244 919 249 918 l 729 1043 b 733 1053 733 1044 735 1049 l 714 1126 b 704 1131 713 1131 708 1132 l 236 969 b 232 960 232 968 231 964 z m 821 293 b 806 288 811 293 807 292 b 475 56 771 161 672 56 b 250 247 328 56 250 121 b 474 443 250 379 326 443 l 678 443 b 833 560 785 443 833 479 b 469 778 833 711 649 778 b 111 606 276 778 111 724 b 250 483 111 526 174 483 b 285 486 261 483 272 485 l 285 472 l 288 472 b 56 233 168 440 56 369 b 447 -14 56 97 168 -14 b 861 285 667 -14 810 89 b 849 293 863 290 860 293 z m 306 603 b 463 725 306 686 356 725 b 639 496 583 725 639 657 l 465 496 b 357 488 433 496 396 493 b 306 603 326 511 306 553 z "},"ê":{"ha":917,"x_min":0,"x_max":0,"o":"m 228 921 b 238 919 231 917 235 918 l 469 1038 b 478 1038 472 1039 475 1039 l 710 919 b 719 921 713 918 717 917 l 747 957 b 746 967 750 961 750 964 l 478 1140 b 469 1140 475 1142 472 1142 l 201 967 b 200 957 197 964 197 961 z m 821 293 b 806 288 811 293 807 292 b 475 56 771 161 672 56 b 250 247 328 56 250 121 b 474 443 250 379 326 443 l 678 443 b 833 560 785 443 833 479 b 469 778 833 711 649 778 b 111 606 276 778 111 724 b 250 483 111 526 174 483 b 285 486 261 483 272 485 l 285 472 l 288 472 b 56 233 168 440 56 369 b 447 -14 56 97 168 -14 b 861 285 667 -14 810 89 b 849 293 863 290 860 293 z m 306 603 b 463 725 306 686 356 725 b 639 496 583 725 639 657 l 465 496 b 357 488 433 496 396 493 b 306 603 326 511 306 553 z "},"ë":{"ha":917,"x_min":0,"x_max":0,"o":"m 342 933 b 432 1024 396 933 432 969 b 342 1114 432 1076 396 1114 b 250 1024 286 1114 250 1076 b 342 933 250 969 286 933 z m 618 933 b 708 1024 672 933 708 969 b 618 1114 708 1076 672 1114 b 526 1024 563 1114 526 1076 b 618 933 526 969 563 933 z m 821 293 b 806 288 811 293 807 292 b 475 56 771 161 672 56 b 250 247 328 56 250 121 b 474 443 250 379 326 443 l 678 443 b 833 560 785 443 833 479 b 469 778 833 711 649 778 b 111 606 276 778 111 724 b 250 483 111 526 174 483 b 285 486 261 483 272 485 l 285 472 l 288 472 b 56 233 168 440 56 369 b 447 -14 56 97 168 -14 b 861 285 667 -14 810 89 b 849 293 863 290 860 293 z m 306 603 b 463 725 306 686 356 725 b 639 496 583 725 639 657 l 465 496 b 357 488 433 496 396 493 b 306 603 326 511 306 553 z "},"è":{"ha":917,"x_min":0,"x_max":0,"o":"m 697 919 b 707 924 701 918 706 919 l 718 960 b 714 969 719 964 718 968 l 246 1131 b 236 1126 242 1132 238 1131 l 217 1053 b 221 1043 215 1049 217 1044 z m 821 293 b 806 288 811 293 807 292 b 475 56 771 161 672 56 b 250 247 328 56 250 121 b 474 443 250 379 326 443 l 678 443 b 833 560 785 443 833 479 b 469 778 833 711 649 778 b 111 606 276 778 111 724 b 250 483 111 526 174 483 b 285 486 261 483 272 485 l 285 472 l 288 472 b 56 233 168 440 56 369 b 447 -14 56 97 168 -14 b 861 285 667 -14 810 89 b 849 293 863 290 860 293 z m 306 603 b 463 725 306 686 356 725 b 639 496 583 725 639 657 l 465 496 b 357 488 433 496 396 493 b 306 603 326 511 306 553 z "},"f":{"ha":625,"x_min":0,"x_max":0,"o":"m 319 1268 b 76 1024 174 1268 76 1171 b 261 765 76 904 144 810 l 261 751 b 161 764 229 763 193 764 l 69 764 b 56 757 60 764 56 763 l 56 718 b 69 711 56 713 60 711 l 206 711 l 206 264 b 63 53 206 82 183 53 b 56 46 58 53 56 50 l 56 7 b 63 0 56 3 58 0 l 536 0 b 543 7 540 0 543 3 l 543 46 b 536 53 543 50 540 53 b 393 264 415 53 393 82 l 393 711 l 529 711 b 543 718 539 711 543 713 l 543 757 b 529 764 543 763 539 764 l 442 764 b 188 1022 289 764 188 867 b 313 1215 188 1138 238 1215 b 404 1057 372 1215 404 1168 b 401 988 404 1029 403 1004 b 411 981 401 982 404 981 l 581 967 b 596 975 592 965 596 969 b 319 1268 610 1217 424 1268 z "},"g":{"ha":938,"x_min":0,"x_max":0,"o":"m 875 769 b 636 746 800 769 714 769 b 440 779 582 767 518 779 b 56 468 199 779 56 664 b 307 197 56 313 149 213 l 307 182 b 83 22 194 179 83 110 b 100 0 83 0 90 0 l 394 0 b 632 -226 550 0 632 -74 b 439 -422 632 -361 565 -422 b 258 -257 321 -422 258 -372 b 275 -129 258 -199 275 -143 b 264 -119 275 -122 271 -119 l 93 -119 b 71 -181 76 -119 71 -140 b 433 -475 71 -385 204 -475 b 826 -186 692 -475 826 -361 b 536 53 826 -29 718 53 l 242 53 b 438 129 243 110 292 129 b 826 453 681 129 826 250 b 708 706 826 557 789 647 b 875 690 754 707 814 700 b 882 696 879 689 882 692 l 882 763 b 875 769 882 767 879 769 z m 442 182 b 247 454 314 182 247 275 b 442 726 247 633 314 726 b 632 454 567 726 632 633 b 442 182 632 275 567 182 z "},"h":{"ha":1114,"x_min":0,"x_max":0,"o":"m 344 656 b 379 764 375 696 379 729 l 379 1197 b 306 1253 379 1239 360 1253 l 49 1253 b 42 1246 44 1253 42 1250 l 42 1207 b 49 1200 42 1203 44 1200 b 192 989 169 1200 192 1171 l 192 264 b 49 53 192 82 169 53 b 42 46 44 53 42 50 l 42 7 b 49 0 42 3 44 0 l 493 0 b 499 7 497 0 499 3 l 499 46 b 493 53 499 50 497 53 b 379 264 397 53 379 82 l 379 610 b 610 725 465 690 551 725 b 725 529 696 725 725 675 l 725 264 b 611 53 725 82 707 53 b 606 46 607 53 606 50 l 606 7 b 611 0 606 3 607 0 l 1056 0 b 1063 7 1060 0 1063 3 l 1063 46 b 1056 53 1063 50 1060 53 b 913 264 935 53 913 82 l 913 482 b 653 779 913 583 913 779 b 358 656 546 779 457 743 z "},"i":{"ha":599,"x_min":0,"x_max":0,"o":"m 299 918 b 406 1024 363 918 406 960 b 299 1129 406 1086 363 1129 b 190 1024 233 1129 190 1086 b 299 918 190 960 233 918 z m 63 0 l 536 0 b 543 7 540 0 543 3 l 543 46 b 536 53 543 50 540 53 b 393 264 415 53 393 82 l 393 715 b 325 764 393 749 372 764 l 63 764 b 56 757 58 764 56 761 l 56 718 b 63 711 56 714 58 711 b 206 500 183 711 206 682 l 206 264 b 63 53 206 82 183 53 b 56 46 58 53 56 50 l 56 7 b 63 0 56 3 58 0 z "},"ı":{"ha":585,"x_min":0,"x_max":0,"o":"m 56 0 l 529 0 b 536 7 533 0 536 3 l 536 46 b 529 53 536 50 533 53 b 386 264 408 53 386 82 l 386 715 b 318 764 386 749 365 764 l 56 764 b 49 757 51 764 49 761 l 49 718 b 56 711 49 714 51 711 b 199 500 176 711 199 682 l 199 264 b 56 53 199 82 176 53 b 49 46 51 53 49 50 l 49 7 b 56 0 49 3 51 0 z "},"í":{"ha":585,"x_min":0,"x_max":0,"o":"m 508 1043 b 513 1053 513 1044 514 1049 l 493 1126 b 483 1131 492 1131 488 1132 l 15 969 b 11 960 11 968 10 964 l 22 924 b 32 919 24 919 28 918 z m 56 0 l 529 0 b 536 7 533 0 536 3 l 536 46 b 529 53 536 50 533 53 b 386 264 408 53 386 82 l 386 715 b 318 764 386 749 365 764 l 56 764 b 49 757 51 764 49 761 l 49 718 b 56 711 49 714 51 711 b 199 500 176 711 199 682 l 199 264 b 56 53 199 82 176 53 b 49 46 51 53 49 50 l 49 7 b 56 0 49 3 51 0 z "},"î":{"ha":585,"x_min":0,"x_max":0,"o":"m 249 1038 b 257 1038 251 1039 254 1039 l 489 919 b 499 921 492 918 496 917 l 526 957 b 525 967 529 961 529 964 l 257 1140 b 249 1140 254 1142 251 1142 l -19 967 b -21 957 -24 964 -24 961 l 7 921 b 17 919 10 917 14 918 z m 56 0 l 529 0 b 536 7 533 0 536 3 l 536 46 b 529 53 536 50 533 53 b 386 264 408 53 386 82 l 386 715 b 318 764 386 749 365 764 l 56 764 b 49 757 51 764 49 761 l 49 718 b 56 711 49 714 51 711 b 199 500 176 711 199 682 l 199 264 b 56 53 199 82 176 53 b 49 46 51 53 49 50 l 49 7 b 56 0 49 3 51 0 z "},"ï":{"ha":585,"x_min":0,"x_max":0,"o":"m 121 933 b 211 1024 175 933 211 969 b 121 1114 211 1076 175 1114 b 29 1024 65 1114 29 1076 b 121 933 29 969 65 933 z m 397 933 b 488 1024 451 933 488 969 b 397 1114 488 1076 451 1114 b 306 1024 342 1114 306 1076 b 397 933 306 969 342 933 z m 56 0 l 529 0 b 536 7 533 0 536 3 l 536 46 b 529 53 536 50 533 53 b 386 264 408 53 386 82 l 386 715 b 318 764 386 749 365 764 l 56 764 b 49 757 51 764 49 761 l 49 718 b 56 711 49 714 51 711 b 199 500 176 711 199 682 l 199 264 b 56 53 199 82 176 53 b 49 46 51 53 49 50 l 49 7 b 56 0 49 3 51 0 z "},"ì":{"ha":585,"x_min":0,"x_max":0,"o":"m 476 919 b 486 924 481 918 485 919 l 497 960 b 493 969 499 964 497 968 l 25 1131 b 15 1126 21 1132 17 1131 l -4 1053 b 0 1043 -6 1049 -4 1044 z m 56 0 l 529 0 b 536 7 533 0 536 3 l 536 46 b 529 53 536 50 533 53 b 386 264 408 53 386 82 l 386 715 b 318 764 386 749 365 764 l 56 764 b 49 757 51 764 49 761 l 49 718 b 56 711 49 714 51 711 b 199 500 176 711 199 682 l 199 264 b 56 53 199 82 176 53 b 49 46 51 53 49 50 l 49 7 b 56 0 49 3 51 0 z "},"j":{"ha":533,"x_min":0,"x_max":0,"o":"m 301 924 b 408 1024 365 924 408 963 b 301 1124 408 1083 365 1124 b 193 1024 236 1124 193 1083 b 301 924 193 963 236 924 z m 56 -465 b 67 -475 56 -475 58 -476 b 396 -58 396 -408 396 -149 l 396 715 b 328 764 396 749 375 764 l 65 764 b 58 757 61 764 58 761 l 58 718 b 65 711 58 714 61 711 b 208 500 186 711 208 682 l 208 -114 b 71 -421 208 -211 208 -351 l 60 -426 b 56 -433 57 -428 56 -429 z "},"k":{"ha":1160,"x_min":0,"x_max":0,"o":"m 1154 53 b 896 221 1058 53 996 68 l 814 347 b 635 456 789 386 740 456 b 586 453 619 456 603 454 l 586 467 l 714 585 b 1021 711 847 708 925 711 b 1026 718 1025 711 1026 714 l 1026 757 b 1021 764 1026 761 1025 764 l 654 764 b 646 757 649 764 646 761 l 646 718 b 654 711 646 714 649 711 b 646 586 811 711 781 708 l 357 321 l 343 321 b 379 436 372 351 379 374 l 379 1204 b 311 1253 379 1240 361 1253 l 49 1253 b 42 1246 44 1253 42 1250 l 42 1207 b 49 1200 42 1203 44 1200 b 192 989 169 1200 192 1171 l 192 264 b 49 53 192 82 169 53 b 42 46 44 53 42 50 l 42 7 b 49 0 42 3 44 0 l 522 0 b 529 7 526 0 529 3 l 529 46 b 522 53 529 50 526 53 b 379 264 401 53 379 82 l 379 275 l 539 422 l 674 219 b 663 53 774 68 794 53 b 654 46 657 53 654 50 l 654 7 b 663 0 654 3 657 0 l 1154 0 b 1160 7 1158 0 1160 3 l 1160 46 b 1154 53 1160 50 1158 53 z "},"l":{"ha":571,"x_min":0,"x_max":0,"o":"m 49 0 l 522 0 b 529 7 526 0 529 3 l 529 46 b 522 53 529 50 526 53 b 379 264 401 53 379 82 l 379 1204 b 304 1253 379 1240 357 1253 l 49 1253 b 42 1246 44 1253 42 1250 l 42 1207 b 49 1200 42 1203 44 1200 b 192 989 169 1200 192 1171 l 192 264 b 49 53 192 82 169 53 b 42 46 44 53 42 50 l 42 7 b 49 0 42 3 44 0 z "},"m":{"ha":1633,"x_min":0,"x_max":0,"o":"m 1575 53 b 1432 264 1454 53 1432 82 l 1432 482 b 1183 778 1432 568 1432 778 b 885 656 1061 778 969 726 b 661 778 854 722 790 778 b 367 656 544 778 457 731 l 353 656 b 381 721 372 683 381 703 b 321 764 381 750 361 764 l 63 764 b 56 757 58 764 56 761 l 56 718 b 63 711 56 714 58 711 b 206 500 183 711 206 682 l 206 264 b 63 53 206 82 183 53 b 56 46 58 53 56 50 l 56 7 b 63 0 56 3 58 0 l 507 0 b 513 7 511 0 513 3 l 513 46 b 507 53 513 50 511 53 b 393 264 411 53 393 82 l 393 611 b 621 725 465 679 557 725 b 725 526 696 725 725 668 l 725 264 b 611 53 725 82 707 53 b 606 46 607 53 606 50 l 606 7 b 611 0 606 3 607 0 l 1056 0 b 1063 7 1060 0 1063 3 l 1063 46 b 1056 53 1063 50 1060 53 b 913 264 935 53 913 82 l 913 482 b 903 599 913 511 913 554 b 1140 725 982 675 1072 725 b 1244 526 1215 725 1244 668 l 1244 264 b 1131 53 1244 82 1226 53 b 1125 46 1126 53 1125 50 l 1125 7 b 1131 0 1125 3 1126 0 l 1575 0 b 1582 7 1579 0 1582 3 l 1582 46 b 1575 53 1582 50 1579 53 z "},"n":{"ha":1128,"x_min":0,"x_max":0,"o":"m 63 0 l 507 0 b 513 7 511 0 513 3 l 513 46 b 507 53 513 50 511 53 b 393 264 411 53 393 82 l 393 610 b 632 725 467 679 560 725 b 739 526 710 725 739 671 l 739 264 b 625 53 739 82 721 53 b 619 46 621 53 619 50 l 619 7 b 625 0 619 3 621 0 l 1069 0 b 1076 7 1074 0 1076 3 l 1076 46 b 1069 53 1076 50 1074 53 b 926 264 949 53 926 82 l 926 482 b 676 778 926 590 926 778 b 367 656 550 778 457 731 l 353 656 b 381 719 374 685 381 703 b 319 764 381 764 335 764 l 63 764 b 56 757 58 764 56 761 l 56 718 b 63 711 56 714 58 711 b 206 500 183 711 206 682 l 206 264 b 63 53 206 82 183 53 b 56 46 58 53 56 50 l 56 7 b 63 0 56 3 58 0 z "},"ñ":{"ha":1128,"x_min":0,"x_max":0,"o":"m 735 907 b 861 1025 821 907 861 958 b 842 1118 861 1054 851 1099 b 835 1124 840 1121 839 1124 l 790 1124 b 783 1111 786 1124 781 1124 b 743 999 788 1088 817 999 b 415 1138 650 999 563 1138 b 272 1000 322 1138 272 1082 b 288 926 272 976 278 956 b 297 921 289 921 294 921 l 336 921 b 346 931 339 921 347 921 b 401 1046 338 988 329 1046 b 735 907 514 1046 593 907 z m 63 0 l 507 0 b 513 7 511 0 513 3 l 513 46 b 507 53 513 50 511 53 b 393 264 411 53 393 82 l 393 610 b 632 725 467 679 560 725 b 739 526 710 725 739 671 l 739 264 b 625 53 739 82 721 53 b 619 46 621 53 619 50 l 619 7 b 625 0 619 3 621 0 l 1069 0 b 1076 7 1074 0 1076 3 l 1076 46 b 1069 53 1076 50 1074 53 b 926 264 949 53 926 82 l 926 482 b 676 778 926 590 926 778 b 367 656 550 778 457 731 l 353 656 b 381 719 374 685 381 703 b 319 764 381 764 335 764 l 63 764 b 56 757 58 764 56 761 l 56 718 b 63 711 56 714 58 711 b 206 500 183 711 206 682 l 206 264 b 63 53 206 82 183 53 b 56 46 58 53 56 50 l 56 7 b 63 0 56 3 58 0 z "},"o":{"ha":960,"x_min":0,"x_max":0,"o":"m 481 -14 b 893 382 754 -14 893 179 b 481 778 893 585 754 778 b 67 382 207 778 67 585 b 481 -14 67 179 207 -14 z m 482 39 b 261 382 331 39 261 149 b 482 725 261 617 331 725 b 700 382 632 725 700 615 b 482 39 700 149 632 39 z "},"ó":{"ha":960,"x_min":0,"x_max":0,"o":"m 738 1043 b 742 1053 742 1044 743 1049 l 722 1126 b 713 1131 721 1131 717 1132 l 244 969 b 240 960 240 968 239 964 l 251 924 b 261 919 253 919 257 918 z m 481 -14 b 893 382 754 -14 893 179 b 481 778 893 585 754 778 b 67 382 207 778 67 585 b 481 -14 67 179 207 -14 z m 482 39 b 261 382 331 39 261 149 b 482 725 261 617 331 725 b 700 382 632 725 700 615 b 482 39 700 149 632 39 z "},"ô":{"ha":960,"x_min":0,"x_max":0,"o":"m 478 1038 b 486 1038 481 1039 483 1039 l 718 919 b 728 921 721 918 725 917 l 756 957 b 754 967 758 961 758 964 l 486 1140 b 478 1140 483 1142 481 1142 l 210 967 b 208 957 206 964 206 961 l 236 921 b 246 919 239 917 243 918 z m 481 -14 b 893 382 754 -14 893 179 b 481 778 893 585 754 778 b 67 382 207 778 67 585 b 481 -14 67 179 207 -14 z m 482 39 b 261 382 331 39 261 149 b 482 725 261 617 331 725 b 700 382 632 725 700 615 b 482 39 700 149 632 39 z "},"ö":{"ha":960,"x_min":0,"x_max":0,"o":"m 350 933 b 440 1024 404 933 440 969 b 350 1114 440 1076 404 1114 b 258 1024 294 1114 258 1076 b 350 933 258 969 294 933 z m 626 933 b 717 1024 681 933 717 969 b 626 1114 717 1076 681 1114 b 535 1024 571 1114 535 1076 b 626 933 535 969 571 933 z m 481 -14 b 893 382 754 -14 893 179 b 481 778 893 585 754 778 b 67 382 207 778 67 585 b 481 -14 67 179 207 -14 z m 482 39 b 261 382 331 39 261 149 b 482 725 261 617 331 725 b 700 382 632 725 700 615 b 482 39 700 149 632 39 z "},"ò":{"ha":960,"x_min":0,"x_max":0,"o":"m 706 919 b 715 924 710 918 714 919 l 726 960 b 722 969 728 964 726 968 l 254 1131 b 244 1126 250 1132 246 1131 l 225 1053 b 229 1043 224 1049 225 1044 z m 481 -14 b 893 382 754 -14 893 179 b 481 778 893 585 754 778 b 67 382 207 778 67 585 b 481 -14 67 179 207 -14 z m 482 39 b 261 382 331 39 261 149 b 482 725 261 617 331 725 b 700 382 632 725 700 615 b 482 39 700 149 632 39 z "},"õ":{"ha":960,"x_min":0,"x_max":0,"o":"m 643 907 b 769 1025 729 907 769 958 b 750 1118 769 1054 760 1099 b 743 1124 749 1121 747 1124 l 699 1124 b 692 1111 694 1124 689 1124 b 651 999 696 1088 725 999 b 324 1138 558 999 471 1138 b 181 1000 231 1138 181 1082 b 196 926 181 976 186 956 b 206 921 197 921 203 921 l 244 921 b 254 931 247 921 256 921 b 310 1046 246 988 238 1046 b 643 907 422 1046 501 907 z m 481 -14 b 893 382 754 -14 893 179 b 481 778 893 585 754 778 b 67 382 207 778 67 585 b 481 -14 67 179 207 -14 z m 482 39 b 261 382 331 39 261 149 b 482 725 261 617 331 725 b 700 382 632 725 700 615 b 482 39 700 149 632 39 z "},"œ":{"ha":1572,"x_min":0,"x_max":0,"o":"m 1476 251 b 1468 246 1474 251 1471 251 b 1447 207 1464 236 1456 219 b 1172 39 1382 94 1289 39 b 913 390 1001 39 913 156 l 1503 390 b 1115 778 1503 631 1358 778 b 800 643 979 778 869 728 b 481 778 732 724 625 778 b 67 382 207 778 67 585 b 481 -14 67 179 207 -14 b 807 128 629 -14 739 43 b 1139 -14 881 39 996 -14 b 1521 243 1399 -14 1488 165 b 1514 251 1524 251 1517 251 z m 482 39 b 261 382 331 39 261 149 b 482 725 261 617 331 725 b 700 382 632 725 700 615 b 482 39 700 149 632 39 z m 1115 725 b 1308 443 1239 725 1304 632 l 913 443 b 1115 725 913 654 974 725 z "},"p":{"ha":1064,"x_min":0,"x_max":0,"o":"m 49 -458 l 522 -458 b 529 -451 526 -458 529 -456 l 529 -412 b 522 -406 529 -408 526 -406 b 379 -194 401 -406 379 -376 l 379 -14 b 344 94 379 29 372 50 l 358 94 b 619 -15 444 18 518 -15 b 997 382 846 -15 997 143 b 621 779 997 631 846 779 b 358 656 521 779 449 744 l 344 656 b 374 721 364 683 374 703 b 313 764 374 750 353 764 l 49 764 b 42 757 44 764 42 761 l 42 718 b 49 711 42 714 44 711 b 192 500 169 711 192 682 l 192 -194 b 49 -406 192 -376 169 -406 b 42 -412 44 -406 42 -408 l 42 -451 b 49 -458 42 -456 44 -458 z m 592 38 b 349 369 432 38 349 153 b 593 726 349 594 425 726 b 803 382 731 726 803 608 b 592 38 803 147 736 38 z "},"q":{"ha":1078,"x_min":0,"x_max":0,"o":"m 542 -460 l 1015 -460 b 1022 -453 1019 -460 1022 -457 l 1022 -414 b 1015 -407 1022 -410 1019 -407 b 872 -196 894 -407 872 -378 l 872 500 b 1015 711 872 682 894 711 b 1022 718 1019 711 1022 714 l 1022 757 b 1015 764 1022 761 1019 764 l 751 764 b 692 719 708 764 692 750 b 719 656 692 701 699 683 l 706 656 b 439 779 624 738 544 779 b 67 381 215 779 67 619 b 444 -15 67 143 218 -15 b 706 94 546 -15 621 18 l 719 94 b 685 -15 692 51 685 31 l 685 -196 b 542 -407 685 -378 663 -407 b 535 -414 538 -407 535 -410 l 535 -453 b 542 -460 535 -457 538 -460 z m 474 38 b 261 375 333 38 261 153 b 474 726 261 606 333 726 b 715 376 618 726 715 586 b 474 38 715 154 632 38 z "},"r":{"ha":749,"x_min":0,"x_max":0,"o":"m 63 0 l 593 0 b 603 7 599 0 603 3 l 603 46 b 593 53 603 50 599 53 b 393 264 424 53 393 82 l 393 500 b 679 711 393 682 438 711 b 693 718 688 711 693 714 l 693 757 b 679 764 693 761 688 764 l 308 764 b 206 667 231 764 206 740 l 206 264 b 63 53 206 82 183 53 b 56 46 58 53 56 50 l 56 7 b 63 0 56 3 58 0 z "},"s":{"ha":868,"x_min":0,"x_max":0,"o":"m 733 503 b 754 519 747 500 751 499 b 408 779 774 642 664 779 b 100 564 217 779 100 703 b 392 322 100 453 175 388 b 660 150 568 269 660 242 b 476 38 660 74 594 38 b 247 217 329 38 247 93 b 251 256 247 221 247 221 b 236 271 253 263 249 268 b 89 299 226 272 92 299 b 72 283 79 300 74 297 b 69 238 71 274 69 253 b 458 -15 69 35 301 -15 b 799 217 664 -15 799 69 b 454 478 799 360 674 407 b 239 625 314 522 239 547 b 388 726 239 692 294 726 b 589 574 513 726 589 664 b 588 543 589 561 588 553 b 600 529 588 533 589 532 z "},"t":{"ha":735,"x_min":0,"x_max":0,"o":"m 621 53 b 456 246 518 53 456 39 l 456 711 l 667 711 b 674 718 671 711 674 714 l 674 757 b 667 764 674 761 671 764 l 449 764 b 394 754 425 764 414 761 l 394 768 b 478 1210 464 821 478 856 b 471 1217 478 1214 475 1217 l 297 1217 b 290 1210 293 1217 290 1214 l 290 1065 b 207 764 290 840 269 765 l 63 764 b 56 757 58 764 56 761 l 56 718 b 63 711 56 714 58 711 l 268 711 l 268 201 b 429 0 268 74 328 0 l 669 0 b 679 8 676 0 679 1 l 679 44 b 669 53 679 51 676 53 z "},"u":{"ha":1104,"x_min":0,"x_max":0,"o":"m 478 -15 b 760 94 586 -15 674 22 l 774 94 b 746 44 751 71 746 60 b 821 0 746 0 789 0 l 1069 0 b 1076 7 1074 0 1076 3 l 1076 46 b 1069 53 1076 50 1074 53 b 926 264 949 53 926 82 l 926 701 b 843 764 926 742 897 764 l 596 764 b 589 757 592 764 589 761 l 589 718 b 596 711 589 714 592 711 b 739 500 717 711 739 682 l 739 140 b 522 38 653 75 588 38 b 393 338 393 38 393 186 l 393 701 b 310 764 393 742 364 764 l 63 764 b 56 757 58 764 56 761 l 56 718 b 63 711 56 714 58 711 b 206 500 183 711 206 682 l 206 297 b 478 -15 206 222 206 -15 z "},"ú":{"ha":1104,"x_min":0,"x_max":0,"o":"m 846 1043 b 850 1053 850 1044 851 1049 l 831 1126 b 821 1131 829 1131 825 1132 l 353 969 b 349 960 349 968 347 964 l 360 924 b 369 919 361 919 365 918 z m 478 -15 b 760 94 586 -15 674 22 l 774 94 b 746 44 751 71 746 60 b 821 0 746 0 789 0 l 1069 0 b 1076 7 1074 0 1076 3 l 1076 46 b 1069 53 1076 50 1074 53 b 926 264 949 53 926 82 l 926 701 b 843 764 926 742 897 764 l 596 764 b 589 757 592 764 589 761 l 589 718 b 596 711 589 714 592 711 b 739 500 717 711 739 682 l 739 140 b 522 38 653 75 588 38 b 393 338 393 38 393 186 l 393 701 b 310 764 393 742 364 764 l 63 764 b 56 757 58 764 56 761 l 56 718 b 63 711 56 714 58 711 b 206 500 183 711 206 682 l 206 297 b 478 -15 206 222 206 -15 z "},"û":{"ha":1104,"x_min":0,"x_max":0,"o":"m 586 1038 b 594 1038 589 1039 592 1039 l 826 919 b 836 921 829 918 833 917 l 864 957 b 863 967 867 961 867 964 l 594 1140 b 586 1140 592 1142 589 1142 l 318 967 b 317 957 314 964 314 961 l 344 921 b 354 919 347 917 351 918 z m 478 -15 b 760 94 586 -15 674 22 l 774 94 b 746 44 751 71 746 60 b 821 0 746 0 789 0 l 1069 0 b 1076 7 1074 0 1076 3 l 1076 46 b 1069 53 1076 50 1074 53 b 926 264 949 53 926 82 l 926 701 b 843 764 926 742 897 764 l 596 764 b 589 757 592 764 589 761 l 589 718 b 596 711 589 714 592 711 b 739 500 717 711 739 682 l 739 140 b 522 38 653 75 588 38 b 393 338 393 38 393 186 l 393 701 b 310 764 393 742 364 764 l 63 764 b 56 757 58 764 56 761 l 56 718 b 63 711 56 714 58 711 b 206 500 183 711 206 682 l 206 297 b 478 -15 206 222 206 -15 z "},"ü":{"ha":1104,"x_min":0,"x_max":0,"o":"m 458 933 b 549 1024 513 933 549 969 b 458 1114 549 1076 513 1114 b 367 1024 403 1114 367 1076 b 458 933 367 969 403 933 z m 735 933 b 825 1024 789 933 825 969 b 735 1114 825 1076 789 1114 b 643 1024 679 1114 643 1076 b 735 933 643 969 679 933 z m 478 -15 b 760 94 586 -15 674 22 l 774 94 b 746 44 751 71 746 60 b 821 0 746 0 789 0 l 1069 0 b 1076 7 1074 0 1076 3 l 1076 46 b 1069 53 1076 50 1074 53 b 926 264 949 53 926 82 l 926 701 b 843 764 926 742 897 764 l 596 764 b 589 757 592 764 589 761 l 589 718 b 596 711 589 714 592 711 b 739 500 717 711 739 682 l 739 140 b 522 38 653 75 588 38 b 393 338 393 38 393 186 l 393 701 b 310 764 393 742 364 764 l 63 764 b 56 757 58 764 56 761 l 56 718 b 63 711 56 714 58 711 b 206 500 183 711 206 682 l 206 297 b 478 -15 206 222 206 -15 z "},"ù":{"ha":1104,"x_min":0,"x_max":0,"o":"m 814 919 b 824 924 818 918 822 919 l 835 960 b 831 969 836 964 835 968 l 363 1131 b 353 1126 358 1132 354 1131 l 333 1053 b 338 1043 332 1049 333 1044 z m 478 -15 b 760 94 586 -15 674 22 l 774 94 b 746 44 751 71 746 60 b 821 0 746 0 789 0 l 1069 0 b 1076 7 1074 0 1076 3 l 1076 46 b 1069 53 1076 50 1074 53 b 926 264 949 53 926 82 l 926 701 b 843 764 926 742 897 764 l 596 764 b 589 757 592 764 589 761 l 589 718 b 596 711 589 714 592 711 b 739 500 717 711 739 682 l 739 140 b 522 38 653 75 588 38 b 393 338 393 38 393 186 l 393 701 b 310 764 393 742 364 764 l 63 764 b 56 757 58 764 56 761 l 56 718 b 63 711 56 714 58 711 b 206 500 183 711 206 682 l 206 297 b 478 -15 206 222 206 -15 z "},"v":{"ha":1111,"x_min":0,"x_max":0,"o":"m 644 97 b 636 56 639 82 636 71 l 622 56 b 614 97 622 71 619 82 l 449 518 b 496 711 383 688 375 711 b 503 718 500 711 503 714 l 503 757 b 496 764 503 761 500 764 l 33 764 b 28 757 29 764 28 761 l 28 718 b 33 711 28 714 29 711 b 246 519 129 711 178 688 l 453 0 l 661 0 l 867 518 b 1078 711 933 688 982 711 b 1083 718 1082 711 1083 714 l 1083 757 b 1078 764 1083 761 1082 764 l 761 764 b 754 757 757 764 754 761 l 754 718 b 761 711 754 714 757 711 b 808 518 882 711 875 688 z "},"w":{"ha":1635,"x_min":0,"x_max":0,"o":"m 1601 764 l 1285 764 b 1278 757 1281 764 1278 761 l 1278 718 b 1285 711 1278 714 1281 711 b 1342 515 1406 711 1401 686 l 1196 97 b 1188 56 1190 82 1188 71 l 1174 56 b 1165 97 1174 71 1171 82 l 1019 515 b 1075 711 958 686 954 711 b 1082 718 1079 711 1082 714 l 1082 757 b 1075 764 1082 761 1079 764 l 656 764 b 651 757 653 764 651 761 l 651 718 b 656 711 651 714 653 711 b 799 564 710 711 746 692 l 617 97 b 608 56 611 82 608 71 l 594 56 b 586 97 594 71 592 82 l 440 515 b 496 711 379 686 375 711 b 503 718 500 711 503 714 l 503 757 b 496 764 503 761 500 764 l 33 764 b 28 757 29 764 28 761 l 28 718 b 33 711 28 714 29 711 b 238 515 129 711 175 688 l 425 0 l 633 0 l 828 486 l 1004 0 l 1213 0 l 1399 515 b 1601 711 1460 686 1506 711 b 1607 718 1606 711 1607 714 l 1607 757 b 1601 764 1607 761 1606 764 z "},"ẃ":{"ha":1635,"x_min":0,"x_max":0,"o":"m 586 924 b 596 919 588 919 592 918 l 1072 1043 b 1076 1053 1076 1044 1078 1049 l 1057 1126 b 1047 1131 1056 1131 1051 1132 l 579 969 b 575 960 575 968 574 964 z m 1601 764 l 1285 764 b 1278 757 1281 764 1278 761 l 1278 718 b 1285 711 1278 714 1281 711 b 1342 515 1406 711 1401 686 l 1196 97 b 1188 56 1190 82 1188 71 l 1174 56 b 1165 97 1174 71 1171 82 l 1019 515 b 1075 711 958 686 954 711 b 1082 718 1079 711 1082 714 l 1082 757 b 1075 764 1082 761 1079 764 l 656 764 b 651 757 653 764 651 761 l 651 718 b 656 711 651 714 653 711 b 799 564 710 711 746 692 l 617 97 b 608 56 611 82 608 71 l 594 56 b 586 97 594 71 592 82 l 440 515 b 496 711 379 686 375 711 b 503 718 500 711 503 714 l 503 757 b 496 764 503 761 500 764 l 33 764 b 28 757 29 764 28 761 l 28 718 b 33 711 28 714 29 711 b 238 515 129 711 175 688 l 425 0 l 633 0 l 828 486 l 1004 0 l 1213 0 l 1399 515 b 1601 711 1460 686 1506 711 b 1607 718 1606 711 1607 714 l 1607 757 b 1601 764 1607 761 1606 764 z "},"ŵ":{"ha":1635,"x_min":0,"x_max":0,"o":"m 571 921 b 581 919 574 917 578 918 l 813 1038 b 821 1038 815 1039 818 1039 l 1053 919 b 1063 921 1056 918 1060 917 l 1090 957 b 1089 967 1093 961 1093 964 l 821 1140 b 813 1140 818 1142 815 1142 l 544 967 b 543 957 540 964 540 961 z m 1601 764 l 1285 764 b 1278 757 1281 764 1278 761 l 1278 718 b 1285 711 1278 714 1281 711 b 1342 515 1406 711 1401 686 l 1196 97 b 1188 56 1190 82 1188 71 l 1174 56 b 1165 97 1174 71 1171 82 l 1019 515 b 1075 711 958 686 954 711 b 1082 718 1079 711 1082 714 l 1082 757 b 1075 764 1082 761 1079 764 l 656 764 b 651 757 653 764 651 761 l 651 718 b 656 711 651 714 653 711 b 799 564 710 711 746 692 l 617 97 b 608 56 611 82 608 71 l 594 56 b 586 97 594 71 592 82 l 440 515 b 496 711 379 686 375 711 b 503 718 500 711 503 714 l 503 757 b 496 764 503 761 500 764 l 33 764 b 28 757 29 764 28 761 l 28 718 b 33 711 28 714 29 711 b 238 515 129 711 175 688 l 425 0 l 633 0 l 828 486 l 1004 0 l 1213 0 l 1399 515 b 1601 711 1460 686 1506 711 b 1607 718 1606 711 1607 714 l 1607 757 b 1601 764 1607 761 1606 764 z "},"ẅ":{"ha":1635,"x_min":0,"x_max":0,"o":"m 685 933 b 775 1024 739 933 775 969 b 685 1114 775 1076 739 1114 b 593 1024 629 1114 593 1076 b 685 933 593 969 629 933 z m 961 933 b 1051 1024 1015 933 1051 969 b 961 1114 1051 1076 1015 1114 b 869 1024 906 1114 869 1076 b 961 933 869 969 906 933 z m 1601 764 l 1285 764 b 1278 757 1281 764 1278 761 l 1278 718 b 1285 711 1278 714 1281 711 b 1342 515 1406 711 1401 686 l 1196 97 b 1188 56 1190 82 1188 71 l 1174 56 b 1165 97 1174 71 1171 82 l 1019 515 b 1075 711 958 686 954 711 b 1082 718 1079 711 1082 714 l 1082 757 b 1075 764 1082 761 1079 764 l 656 764 b 651 757 653 764 651 761 l 651 718 b 656 711 651 714 653 711 b 799 564 710 711 746 692 l 617 97 b 608 56 611 82 608 71 l 594 56 b 586 97 594 71 592 82 l 440 515 b 496 711 379 686 375 711 b 503 718 500 711 503 714 l 503 757 b 496 764 503 761 500 764 l 33 764 b 28 757 29 764 28 761 l 28 718 b 33 711 28 714 29 711 b 238 515 129 711 175 688 l 425 0 l 633 0 l 828 486 l 1004 0 l 1213 0 l 1399 515 b 1601 711 1460 686 1506 711 b 1607 718 1606 711 1607 714 l 1607 757 b 1601 764 1607 761 1606 764 z "},"ẁ":{"ha":1635,"x_min":0,"x_max":0,"o":"m 1040 919 b 1050 924 1044 918 1049 919 l 1061 960 b 1057 969 1063 964 1061 968 l 589 1131 b 579 1126 585 1132 581 1131 l 560 1053 b 564 1043 558 1049 560 1044 z m 1601 764 l 1285 764 b 1278 757 1281 764 1278 761 l 1278 718 b 1285 711 1278 714 1281 711 b 1342 515 1406 711 1401 686 l 1196 97 b 1188 56 1190 82 1188 71 l 1174 56 b 1165 97 1174 71 1171 82 l 1019 515 b 1075 711 958 686 954 711 b 1082 718 1079 711 1082 714 l 1082 757 b 1075 764 1082 761 1079 764 l 656 764 b 651 757 653 764 651 761 l 651 718 b 656 711 651 714 653 711 b 799 564 710 711 746 692 l 617 97 b 608 56 611 82 608 71 l 594 56 b 586 97 594 71 592 82 l 440 515 b 496 711 379 686 375 711 b 503 718 500 711 503 714 l 503 757 b 496 764 503 761 500 764 l 33 764 b 28 757 29 764 28 761 l 28 718 b 33 711 28 714 29 711 b 238 515 129 711 175 688 l 425 0 l 633 0 l 828 486 l 1004 0 l 1213 0 l 1399 515 b 1601 711 1460 686 1506 711 b 1607 718 1606 711 1607 714 l 1607 757 b 1601 764 1607 761 1606 764 z "},"x":{"ha":1006,"x_min":0,"x_max":0,"o":"m 986 53 b 735 215 901 53 839 67 l 578 438 l 674 560 b 950 715 786 703 854 715 b 956 722 954 715 956 718 l 956 761 b 950 768 956 765 954 768 l 642 768 b 636 761 639 768 636 765 l 636 722 b 642 715 636 718 639 715 b 608 560 751 715 721 703 l 547 482 l 500 549 b 478 711 396 697 368 711 b 483 718 481 711 483 714 l 483 757 b 478 764 483 761 481 764 l 19 764 b 14 757 17 764 14 761 l 14 718 b 19 711 14 714 17 711 b 271 549 104 711 167 697 l 428 326 l 332 204 b 56 49 219 61 151 49 b 50 42 51 49 50 46 l 50 3 b 56 -4 50 -1 51 -4 l 364 -4 b 369 3 367 -4 369 -1 l 369 42 b 364 49 369 46 367 49 b 397 204 254 49 285 61 l 458 282 l 506 215 b 528 53 610 67 638 53 b 522 46 525 53 522 50 l 522 7 b 528 0 522 3 525 0 l 986 0 b 992 7 989 0 992 3 l 992 46 b 986 53 992 50 989 53 z "},"y":{"ha":1142,"x_min":0,"x_max":0,"o":"m 371 -467 b 576 -326 497 -467 538 -437 l 875 515 b 1107 711 936 686 986 711 b 1114 718 1111 711 1114 714 l 1114 757 b 1107 764 1114 761 1111 764 l 763 764 b 756 757 758 764 756 761 l 756 718 b 763 711 756 714 758 711 b 818 515 883 711 878 686 l 671 97 b 663 56 665 82 663 71 l 649 56 b 640 97 649 71 647 82 l 458 521 b 497 711 386 689 376 711 b 504 718 501 711 504 714 l 504 757 b 497 764 504 761 501 764 l 33 764 b 28 757 29 764 28 761 l 28 718 b 33 711 28 714 29 711 b 251 522 129 711 179 689 l 476 0 l 635 0 l 568 -190 b 322 -286 539 -275 536 -286 b 310 -293 315 -286 308 -289 l 357 -460 b 371 -467 358 -464 365 -467 z "},"ý":{"ha":1142,"x_min":0,"x_max":0,"o":"m 813 1043 b 817 1053 817 1044 818 1049 l 797 1126 b 788 1131 796 1131 792 1132 l 319 969 b 315 960 315 968 314 964 l 326 924 b 336 919 328 919 332 918 z m 371 -467 b 576 -326 497 -467 538 -437 l 875 515 b 1107 711 936 686 986 711 b 1114 718 1111 711 1114 714 l 1114 757 b 1107 764 1114 761 1111 764 l 763 764 b 756 757 758 764 756 761 l 756 718 b 763 711 756 714 758 711 b 818 515 883 711 878 686 l 671 97 b 663 56 665 82 663 71 l 649 56 b 640 97 649 71 647 82 l 458 521 b 497 711 386 689 376 711 b 504 718 501 711 504 714 l 504 757 b 497 764 504 761 501 764 l 33 764 b 28 757 29 764 28 761 l 28 718 b 33 711 28 714 29 711 b 251 522 129 711 179 689 l 476 0 l 635 0 l 568 -190 b 322 -286 539 -275 536 -286 b 310 -293 315 -286 308 -289 l 357 -460 b 371 -467 358 -464 365 -467 z "},"ŷ":{"ha":1142,"x_min":0,"x_max":0,"o":"m 553 1038 b 561 1038 556 1039 558 1039 l 793 919 b 803 921 796 918 800 917 l 831 957 b 829 967 833 961 833 964 l 561 1140 b 553 1140 558 1142 556 1142 l 285 967 b 283 957 281 964 281 961 l 311 921 b 321 919 314 917 318 918 z m 371 -467 b 576 -326 497 -467 538 -437 l 875 515 b 1107 711 936 686 986 711 b 1114 718 1111 711 1114 714 l 1114 757 b 1107 764 1114 761 1111 764 l 763 764 b 756 757 758 764 756 761 l 756 718 b 763 711 756 714 758 711 b 818 515 883 711 878 686 l 671 97 b 663 56 665 82 663 71 l 649 56 b 640 97 649 71 647 82 l 458 521 b 497 711 386 689 376 711 b 504 718 501 711 504 714 l 504 757 b 497 764 504 761 501 764 l 33 764 b 28 757 29 764 28 761 l 28 718 b 33 711 28 714 29 711 b 251 522 129 711 179 689 l 476 0 l 635 0 l 568 -190 b 322 -286 539 -275 536 -286 b 310 -293 315 -286 308 -289 l 357 -460 b 371 -467 358 -464 365 -467 z "},"ÿ":{"ha":1142,"x_min":0,"x_max":0,"o":"m 425 933 b 515 1024 479 933 515 969 b 425 1114 515 1076 479 1114 b 333 1024 369 1114 333 1076 b 425 933 333 969 369 933 z m 701 933 b 792 1024 756 933 792 969 b 701 1114 792 1076 756 1114 b 610 1024 646 1114 610 1076 b 701 933 610 969 646 933 z m 371 -467 b 576 -326 497 -467 538 -437 l 875 515 b 1107 711 936 686 986 711 b 1114 718 1111 711 1114 714 l 1114 757 b 1107 764 1114 761 1111 764 l 763 764 b 756 757 758 764 756 761 l 756 718 b 763 711 756 714 758 711 b 818 515 883 711 878 686 l 671 97 b 663 56 665 82 663 71 l 649 56 b 640 97 649 71 647 82 l 458 521 b 497 711 386 689 376 711 b 504 718 501 711 504 714 l 504 757 b 497 764 504 761 501 764 l 33 764 b 28 757 29 764 28 761 l 28 718 b 33 711 28 714 29 711 b 251 522 129 711 179 689 l 476 0 l 635 0 l 568 -190 b 322 -286 539 -275 536 -286 b 310 -293 315 -286 308 -289 l 357 -460 b 371 -467 358 -464 365 -467 z "},"ỳ":{"ha":1142,"x_min":0,"x_max":0,"o":"m 781 919 b 790 924 785 918 789 919 l 801 960 b 797 969 803 964 801 968 l 329 1131 b 319 1126 325 1132 321 1131 l 300 1053 b 304 1043 299 1049 300 1044 z m 371 -467 b 576 -326 497 -467 538 -437 l 875 515 b 1107 711 936 686 986 711 b 1114 718 1111 711 1114 714 l 1114 757 b 1107 764 1114 761 1111 764 l 763 764 b 756 757 758 764 756 761 l 756 718 b 763 711 756 714 758 711 b 818 515 883 711 878 686 l 671 97 b 663 56 665 82 663 71 l 649 56 b 640 97 649 71 647 82 l 458 521 b 497 711 386 689 376 711 b 504 718 501 711 504 714 l 504 757 b 497 764 504 761 501 764 l 33 764 b 28 757 29 764 28 761 l 28 718 b 33 711 28 714 29 711 b 251 522 129 711 179 689 l 476 0 l 635 0 l 568 -190 b 322 -286 539 -275 536 -286 b 310 -293 315 -286 308 -289 l 357 -460 b 371 -467 358 -464 365 -467 z "},"z":{"ha":917,"x_min":0,"x_max":0,"o":"m 804 207 b 796 201 800 208 796 206 b 557 53 774 83 739 51 l 361 53 b 304 39 344 53 325 49 l 304 53 b 363 110 328 63 340 83 l 847 711 l 847 764 l 106 764 l 101 739 l 69 571 b 75 563 69 567 71 563 l 114 556 b 122 561 118 554 121 557 b 360 710 143 679 178 711 l 556 710 b 613 724 572 710 592 714 l 613 711 b 554 654 594 703 576 681 l 69 53 l 69 0 l 811 0 l 815 24 l 847 192 b 842 200 849 196 846 199 z "},".":{"ha":326,"x_min":0,"x_max":0,"o":"m 163 -15 b 271 90 224 -15 271 31 b 163 197 271 150 224 197 b 56 90 101 197 56 151 b 163 -15 56 31 101 -15 z "},",":{"ha":332,"x_min":0,"x_max":0,"o":"m 168 197 b 61 90 107 197 61 151 b 161 -15 61 33 104 -11 l 161 -29 b 114 -75 136 -37 122 -56 l 56 -203 b 63 -214 54 -208 57 -214 l 111 -214 b 126 -206 117 -214 122 -211 l 229 -44 b 276 90 264 10 276 49 b 168 197 276 150 229 197 z "},":":{"ha":326,"x_min":0,"x_max":0,"o":"m 163 575 b 271 681 224 575 271 621 b 163 788 271 740 224 788 b 56 681 101 788 56 742 b 163 575 56 621 101 575 z m 163 -15 b 271 90 224 -15 271 31 b 163 197 271 150 224 197 b 56 90 101 197 56 151 b 163 -15 56 31 101 -15 z "},";":{"ha":332,"x_min":0,"x_max":0,"o":"m 163 575 b 271 681 224 575 271 621 b 163 788 271 740 224 788 b 56 681 101 788 56 742 b 163 575 56 621 101 575 z m 168 197 b 61 90 107 197 61 151 b 161 -15 61 33 104 -11 l 161 -29 b 114 -75 136 -37 122 -56 l 56 -203 b 63 -214 54 -208 57 -214 l 111 -214 b 126 -206 117 -214 122 -211 l 229 -44 b 276 90 264 10 276 49 b 168 197 276 150 229 197 z "},"…":{"ha":896,"x_min":0,"x_max":0,"o":"m 163 -15 b 271 90 224 -15 271 31 b 163 197 271 150 224 197 b 56 90 101 197 56 151 b 163 -15 56 31 101 -15 z m 447 -15 b 556 90 508 -15 556 31 b 447 197 556 150 508 197 b 340 90 386 197 340 151 b 447 -15 340 31 386 -15 z m 732 -15 b 840 90 793 -15 840 31 b 732 197 840 150 793 197 b 625 90 671 197 625 151 b 732 -15 625 31 671 -15 z "},"!":{"ha":326,"x_min":0,"x_max":0,"o":"m 185 326 b 192 333 189 326 192 329 b 254 1001 192 540 254 807 l 254 1239 b 240 1253 254 1247 249 1253 l 74 1253 b 60 1239 65 1253 60 1247 l 60 1001 b 122 333 60 807 122 540 b 129 326 122 329 125 326 z m 163 -15 b 271 90 224 -15 271 31 b 163 197 271 150 224 197 b 56 90 101 197 56 151 b 163 -15 56 31 101 -15 z "},"¡":{"ha":326,"x_min":0,"x_max":0,"o":"m 163 810 b 56 704 101 810 56 764 b 163 597 56 643 101 597 b 271 704 224 597 271 644 b 163 810 271 764 224 810 z m 129 468 b 122 461 125 468 122 465 b 60 -207 122 254 60 -12 l 60 -444 b 74 -458 60 -453 65 -458 l 240 -458 b 254 -444 249 -458 254 -453 l 254 -207 b 192 461 254 -12 192 254 b 185 468 192 465 189 468 z "},"?":{"ha":860,"x_min":0,"x_max":0,"o":"m 804 981 b 443 1269 804 1161 671 1269 b 58 826 178 1269 35 1121 b 68 811 60 818 58 811 l 244 811 b 253 826 251 811 254 817 b 433 1210 225 1057 261 1210 b 610 997 553 1210 610 1136 b 224 326 610 638 224 683 l 560 326 l 560 386 l 279 386 b 804 981 279 614 804 624 z m 394 -15 b 503 90 456 -15 503 31 b 394 197 503 150 456 197 b 288 90 333 197 288 151 b 394 -15 288 31 333 -15 z "},"¿":{"ha":860,"x_min":0,"x_max":0,"o":"m 465 810 b 357 704 404 810 357 764 b 465 597 357 644 404 597 b 572 704 526 597 572 643 b 465 810 572 764 526 810 z m 56 -186 b 417 -475 56 -367 189 -475 b 801 -32 682 -475 825 -326 b 792 -17 800 -24 801 -17 l 615 -17 b 607 -32 608 -17 606 -22 b 426 -415 635 -262 599 -415 b 250 -203 307 -415 250 -342 b 636 468 250 157 636 111 l 300 468 l 300 408 l 581 408 b 56 -186 581 181 56 171 z "},"·":{"ha":326,"x_min":0,"x_max":0,"o":"m 163 292 b 271 397 224 292 271 338 b 163 504 271 457 224 504 b 56 397 101 504 56 458 b 163 292 56 338 101 292 z "},"•":{"ha":596,"x_min":0,"x_max":0,"o":"m 296 164 b 540 401 433 164 540 268 b 296 643 540 536 433 643 b 56 401 158 643 56 539 b 296 164 56 268 158 164 z "},"*":{"ha":872,"x_min":0,"x_max":0,"o":"m 726 956 b 632 939 692 956 664 947 b 496 913 597 928 556 917 b 610 990 540 951 578 972 b 689 1044 639 1007 665 1022 b 725 1111 714 1068 725 1090 b 706 1156 725 1129 718 1144 b 660 1178 692 1171 676 1178 b 593 1140 639 1178 617 1165 b 539 1061 571 1117 556 1090 b 461 947 521 1029 500 992 b 488 1083 465 1007 476 1049 b 504 1178 496 1115 504 1143 b 436 1268 504 1238 481 1268 b 368 1178 390 1268 368 1239 b 385 1083 368 1143 376 1115 b 411 947 396 1049 407 1007 b 333 1061 372 992 351 1029 b 279 1140 317 1090 301 1117 b 213 1178 256 1165 233 1178 b 165 1157 196 1178 182 1172 b 146 1113 151 1142 146 1128 b 182 1043 146 1092 157 1071 b 261 989 207 1021 232 1007 b 376 913 293 972 331 951 b 240 939 317 917 275 928 b 146 956 208 947 181 956 b 56 888 85 956 56 933 b 146 819 56 842 85 819 b 240 836 181 819 208 828 b 376 863 275 847 317 858 b 263 785 332 824 294 803 b 183 731 233 768 207 753 b 146 664 158 707 146 685 b 167 618 146 649 153 632 b 213 597 181 604 197 597 b 279 635 233 597 256 610 b 333 714 301 658 317 685 b 411 828 351 746 372 783 b 385 692 407 768 396 726 b 368 597 376 660 368 632 b 436 507 368 536 390 507 b 504 597 482 507 504 536 b 488 692 504 632 496 660 b 461 828 476 726 465 768 b 538 713 500 782 521 744 b 592 633 556 683 569 658 b 660 599 617 610 640 599 b 706 618 676 599 692 604 b 726 663 721 635 726 649 b 690 731 726 683 715 703 b 610 785 665 753 639 768 b 496 863 578 803 540 824 b 632 836 556 858 597 847 b 726 819 664 828 692 819 b 817 888 786 819 817 843 b 726 956 817 933 788 956 z "},"#":{"ha":1699,"x_min":0,"x_max":0,"o":"m 1258 686 l 1419 1207 b 1406 1233 1422 1219 1417 1229 l 1354 1249 b 1329 1236 1343 1251 1333 1247 l 1160 686 l 769 686 l 931 1207 b 917 1233 933 1219 928 1229 l 865 1249 b 840 1236 854 1251 844 1247 l 671 686 l 222 686 b 215 679 218 686 215 683 l 215 599 b 222 592 215 594 218 592 l 642 592 l 517 186 l 63 186 b 56 179 58 186 56 183 l 56 99 b 63 92 56 94 58 92 l 488 92 l 340 -385 b 354 -411 338 -397 343 -407 l 406 -426 b 431 -414 417 -429 426 -425 l 586 92 l 976 92 l 829 -385 b 843 -411 826 -397 832 -407 l 894 -426 b 919 -414 906 -429 915 -425 l 1075 92 l 1478 92 b 1485 99 1482 92 1485 94 l 1485 179 b 1478 186 1485 183 1482 186 l 1104 186 l 1229 592 l 1636 592 b 1643 599 1640 592 1643 594 l 1643 679 b 1636 686 1643 683 1640 686 z m 615 186 l 740 592 l 1131 592 l 1006 186 z "},"/":{"ha":710,"x_min":0,"x_max":0,"o":"m 585 1249 b 560 1236 574 1251 564 1247 l 60 -385 b 74 -411 57 -397 63 -407 l 125 -426 b 150 -414 136 -429 146 -425 l 650 1207 b 636 1233 653 1219 647 1229 z "},"\\":{"ha":710,"x_min":0,"x_max":0,"o":"m 150 1236 b 125 1249 146 1247 136 1251 l 74 1233 b 60 1207 63 1229 57 1219 l 560 -414 b 585 -426 564 -425 574 -429 l 636 -411 b 650 -385 647 -407 653 -397 z "},"(":{"ha":432,"x_min":0,"x_max":0,"o":"m 150 397 b 374 1194 150 682 219 968 b 371 1215 379 1201 378 1211 l 317 1253 b 297 1250 310 1257 303 1257 b 56 397 126 1007 56 685 b 297 -456 56 110 126 -212 b 317 -458 303 -462 310 -462 l 371 -421 b 374 -400 378 -417 379 -407 b 150 397 219 -174 150 113 z "},")":{"ha":438,"x_min":0,"x_max":0,"o":"m 282 397 b 58 -400 282 113 213 -174 b 61 -421 53 -407 54 -417 l 115 -458 b 135 -456 122 -462 129 -462 b 376 397 306 -212 376 110 b 135 1250 376 685 306 1007 b 115 1253 129 1257 122 1257 l 61 1215 b 58 1194 54 1211 53 1201 b 282 397 213 968 282 682 z "},"{":{"ha":493,"x_min":0,"x_max":0,"o":"m 56 351 b 63 344 56 347 58 344 b 214 218 188 344 214 311 b 182 -231 214 135 182 -104 b 431 -458 182 -376 267 -456 b 438 -451 435 -458 438 -456 l 438 -371 b 431 -364 438 -367 435 -364 b 276 -231 321 -361 276 -324 b 308 218 276 -114 308 125 b 190 383 308 328 268 383 l 190 411 b 308 576 268 411 308 467 b 276 1025 308 669 276 908 b 431 1158 276 1118 321 1156 b 438 1165 435 1158 438 1161 l 438 1246 b 431 1253 438 1250 435 1253 b 182 1025 267 1250 182 1171 b 214 576 182 899 214 660 b 63 450 214 483 188 450 b 56 443 58 450 56 447 z "},"}":{"ha":488,"x_min":0,"x_max":0,"o":"m 432 443 b 425 450 432 447 429 450 b 274 576 300 450 274 483 b 306 1025 274 660 306 899 b 57 1253 306 1171 221 1250 b 50 1246 53 1253 50 1250 l 50 1165 b 57 1158 50 1161 53 1158 b 211 1025 167 1156 211 1118 b 179 576 211 908 179 669 b 297 411 179 467 219 411 l 297 383 b 179 218 219 383 179 328 b 211 -231 179 125 211 -114 b 57 -364 211 -324 167 -361 b 50 -371 53 -364 50 -367 l 50 -451 b 57 -458 50 -456 53 -458 b 306 -231 221 -456 306 -376 b 274 218 306 -104 274 135 b 425 344 274 311 300 344 b 432 351 429 344 432 347 z "},"[":{"ha":417,"x_min":0,"x_max":0,"o":"m 354 -458 b 361 -451 358 -458 361 -456 l 361 -371 b 354 -364 361 -367 358 -364 l 157 -364 b 150 -357 153 -364 150 -361 l 150 1151 b 157 1158 150 1156 153 1158 l 354 1158 b 361 1165 358 1158 361 1161 l 361 1246 b 354 1253 361 1250 358 1253 l 63 1253 b 56 1246 58 1253 56 1250 l 56 -451 b 63 -458 56 -456 58 -458 z "},"]":{"ha":417,"x_min":0,"x_max":0,"o":"m 354 -458 b 361 -451 358 -458 361 -456 l 361 1246 b 354 1253 361 1250 358 1253 l 63 1253 b 56 1246 58 1253 56 1250 l 56 1165 b 63 1158 56 1161 58 1158 l 260 1158 b 267 1151 264 1158 267 1156 l 267 -357 b 260 -364 267 -361 264 -364 l 63 -364 b 56 -371 58 -364 56 -367 l 56 -451 b 63 -458 56 -456 58 -458 z "},"-":{"ha":708,"x_min":0,"x_max":0,"o":"m 646 335 b 653 342 650 335 653 338 l 653 422 b 646 429 653 426 650 429 l 63 429 b 56 422 58 429 56 426 l 56 342 b 63 335 56 338 58 335 z "},"–":{"ha":944,"x_min":0,"x_max":0,"o":"m 882 335 b 889 342 886 335 889 338 l 889 422 b 882 429 889 426 886 429 l 63 429 b 56 422 58 429 56 426 l 56 342 b 63 335 56 338 58 335 z "},"—":{"ha":1236,"x_min":0,"x_max":0,"o":"m 1174 335 b 1181 342 1178 335 1181 338 l 1181 422 b 1174 429 1181 426 1178 429 l 63 429 b 56 422 58 429 56 426 l 56 342 b 63 335 56 338 58 335 z "},"_":{"ha":944,"x_min":0,"x_max":0,"o":"m 882 -158 b 889 -151 886 -158 889 -156 l 889 -71 b 882 -64 889 -67 886 -64 l 63 -64 b 56 -71 58 -64 56 -67 l 56 -151 b 63 -158 56 -156 58 -158 z "},"‚":{"ha":822,"x_min":0,"x_max":0,"o":"m 168 197 b 61 90 107 197 61 151 b 161 -15 61 33 104 -11 l 161 -29 b 114 -75 136 -37 122 -56 l 56 -203 b 63 -214 54 -208 57 -214 l 111 -214 b 126 -206 117 -214 122 -211 l 229 -44 b 276 90 264 10 276 49 b 168 197 276 150 229 197 z "},"„":{"ha":589,"x_min":0,"x_max":0,"o":"m 168 197 b 61 90 107 197 61 151 b 161 -15 61 33 104 -11 l 161 -29 b 114 -75 136 -37 122 -56 l 56 -203 b 63 -214 54 -208 57 -214 l 111 -214 b 126 -206 117 -214 122 -211 l 229 -44 b 276 90 264 10 276 49 b 168 197 276 150 229 197 z m 425 197 b 318 90 364 197 318 151 b 418 -15 318 33 361 -11 l 418 -29 b 371 -75 393 -37 379 -56 l 313 -203 b 319 -214 311 -208 314 -214 l 368 -214 b 383 -206 374 -214 379 -211 l 486 -44 b 533 90 521 10 533 49 b 425 197 533 150 486 197 z "},"“":{"ha":589,"x_min":0,"x_max":0,"o":"m 211 1269 b 196 1261 206 1269 200 1267 l 93 1100 b 46 965 58 1046 46 1007 b 154 858 46 906 93 858 b 261 965 215 858 261 904 b 161 1071 261 1022 218 1067 l 161 1085 b 208 1131 186 1093 200 1111 l 267 1258 b 260 1269 268 1264 265 1269 z m 524 1258 b 517 1269 525 1264 522 1269 l 468 1269 b 453 1261 463 1269 457 1267 l 350 1100 b 303 965 315 1046 303 1007 b 411 858 303 906 350 858 b 518 965 472 858 518 904 b 418 1071 518 1022 475 1067 l 418 1085 b 465 1131 443 1093 457 1111 z "},"”":{"ha":589,"x_min":0,"x_max":0,"o":"m 168 1269 b 61 1163 107 1269 61 1224 b 161 1057 61 1106 104 1061 l 161 1043 b 114 997 136 1035 122 1017 l 56 869 b 63 858 54 864 57 858 l 111 858 b 126 867 117 858 122 861 l 229 1028 b 276 1163 264 1082 276 1121 b 168 1269 276 1222 229 1269 z m 425 1269 b 318 1163 364 1269 318 1224 b 418 1057 318 1106 361 1061 l 418 1043 b 371 997 393 1035 379 1017 l 313 869 b 319 858 311 864 314 858 l 368 858 b 383 867 374 858 379 861 l 486 1028 b 533 1163 521 1082 533 1121 b 425 1269 533 1222 486 1269 z "},"‘":{"ha":332,"x_min":0,"x_max":0,"o":"m 276 1258 b 269 1269 278 1264 275 1269 l 221 1269 b 206 1261 215 1269 210 1267 l 103 1100 b 56 965 68 1046 56 1007 b 164 858 56 906 103 858 b 271 965 225 858 271 904 b 171 1071 271 1022 228 1067 l 171 1085 b 218 1131 196 1093 210 1111 z "},"’":{"ha":315,"x_min":0,"x_max":0,"o":"m 158 1269 b 51 1163 97 1269 51 1224 b 151 1057 51 1106 94 1061 l 151 1043 b 104 997 126 1035 113 1017 l 46 869 b 53 858 44 864 47 858 l 101 858 b 117 867 107 858 113 861 l 219 1028 b 267 1163 254 1082 267 1121 b 158 1269 267 1222 219 1269 z "},"«":{"ha":869,"x_min":0,"x_max":0,"o":"m 235 389 b 481 713 389 417 436 536 b 474 719 482 717 478 719 l 393 719 b 386 713 389 719 388 717 b 124 429 342 532 289 429 b 117 422 119 429 117 426 l 117 342 b 124 335 117 338 119 335 b 386 51 289 335 342 232 b 393 44 388 47 389 44 l 474 44 b 481 51 478 44 482 47 b 235 375 436 228 389 347 z m 518 389 b 764 713 672 417 719 536 b 757 719 765 717 761 719 l 676 719 b 669 713 672 719 671 717 b 407 429 625 532 572 429 b 400 422 403 429 400 426 l 400 342 b 407 335 400 338 403 335 b 669 51 572 335 625 232 b 676 44 671 47 672 44 l 757 44 b 764 51 761 44 765 47 b 518 375 719 228 672 347 z "},"»":{"ha":869,"x_min":0,"x_max":0,"o":"m 351 375 b 106 51 197 347 150 228 b 113 44 104 47 108 44 l 193 44 b 200 51 197 44 199 47 b 463 335 244 232 297 335 b 469 342 467 335 469 338 l 469 422 b 463 429 469 426 467 429 b 200 713 297 429 244 532 b 193 719 199 717 197 719 l 113 719 b 106 713 108 719 104 717 b 351 389 150 536 197 417 z m 635 375 b 389 51 481 347 433 228 b 396 44 388 47 392 44 l 476 44 b 483 51 481 44 482 47 b 746 335 528 232 581 335 b 753 342 750 335 753 338 l 753 422 b 746 429 753 426 750 429 b 483 713 581 429 528 532 b 476 719 482 717 481 719 l 396 719 b 389 713 392 719 388 717 b 635 389 433 536 481 417 z "},"‹":{"ha":586,"x_min":0,"x_max":0,"o":"m 229 389 b 475 713 383 417 431 536 b 468 719 476 717 472 719 l 388 719 b 381 713 383 719 382 717 b 118 429 336 532 283 429 b 111 422 114 429 111 426 l 111 342 b 118 335 111 338 114 335 b 381 51 283 335 336 232 b 388 44 382 47 383 44 l 468 44 b 475 51 472 44 476 47 b 229 375 431 228 383 347 z "},"›":{"ha":586,"x_min":0,"x_max":0,"o":"m 357 375 b 111 51 203 347 156 228 b 118 44 110 47 114 44 l 199 44 b 206 51 203 44 204 47 b 468 335 250 232 303 335 b 475 342 472 335 475 338 l 475 422 b 468 429 475 426 472 429 b 206 713 303 429 250 532 b 199 719 204 717 203 719 l 118 719 b 111 713 114 719 110 717 b 357 389 156 536 203 417 z "},"\"":{"ha":458,"x_min":0,"x_max":0,"o":"m 160 846 b 167 853 164 846 165 849 l 194 1021 b 201 1113 200 1054 201 1079 l 201 1239 b 188 1253 201 1247 196 1253 l 76 1253 b 63 1239 68 1253 63 1247 l 63 1113 b 69 1021 63 1079 64 1054 l 97 853 b 104 846 99 849 100 846 z m 368 846 b 375 853 372 846 374 849 l 403 1021 b 410 1113 408 1054 410 1079 l 410 1239 b 396 1253 410 1247 404 1253 l 285 1253 b 271 1239 276 1253 271 1247 l 271 1113 b 278 1021 271 1079 272 1054 l 306 853 b 313 846 307 849 308 846 z "},"'":{"ha":250,"x_min":0,"x_max":0,"o":"m 153 846 b 160 853 157 846 158 849 l 188 1021 b 194 1113 193 1054 194 1079 l 194 1239 b 181 1253 194 1247 189 1253 l 69 1253 b 56 1239 61 1253 56 1247 l 56 1113 b 63 1021 56 1079 57 1054 l 90 853 b 97 846 92 849 93 846 z "},"$":{"ha":1074,"x_min":0,"x_max":0,"o":"m 990 304 b 578 701 990 479 868 583 l 578 1107 b 744 872 694 1083 744 1001 l 743 850 b 758 832 742 840 749 833 l 906 806 b 922 817 914 804 921 808 b 578 1164 943 915 875 1133 l 578 1299 b 571 1306 578 1303 575 1306 l 490 1306 b 483 1299 486 1306 483 1303 l 483 1167 b 122 885 300 1160 122 1086 b 483 522 122 726 232 632 l 483 43 b 265 265 325 61 265 143 b 278 368 265 297 271 336 b 261 386 279 376 274 383 l 107 413 b 90 403 99 414 92 410 b 83 336 85 382 83 356 b 483 -11 83 142 240 11 l 483 -146 b 490 -153 483 -150 486 -153 l 571 -153 b 578 -146 575 -153 578 -150 l 578 -14 b 990 304 829 -8 990 103 z m 275 940 b 483 1114 275 1053 357 1108 l 483 738 b 275 940 357 788 275 828 z m 578 482 b 838 243 743 414 838 376 b 578 39 838 117 753 46 z "},"+":{"ha":708,"x_min":0,"x_max":0,"o":"m 400 429 l 400 674 b 393 681 400 678 397 681 l 313 681 b 306 674 308 681 306 678 l 306 429 l 63 429 b 56 422 58 429 56 426 l 56 342 b 63 335 56 338 58 335 l 306 335 l 306 90 b 313 83 306 86 308 83 l 393 83 b 400 90 397 83 400 86 l 400 335 l 646 335 b 653 342 650 335 653 338 l 653 422 b 646 429 653 426 650 429 z "},"−":{"ha":708,"x_min":0,"x_max":0,"o":"m 646 335 b 653 342 650 335 653 338 l 653 422 b 646 429 653 426 650 429 l 63 429 b 56 422 58 429 56 426 l 56 342 b 63 335 56 338 58 335 z "},"=":{"ha":708,"x_min":0,"x_max":0,"o":"m 646 474 b 653 481 650 474 653 476 l 653 561 b 646 568 653 565 650 568 l 63 568 b 56 561 58 568 56 565 l 56 481 b 63 474 56 476 58 474 z m 646 196 b 653 203 650 196 653 199 l 653 283 b 646 290 653 288 650 290 l 63 290 b 56 283 58 290 56 288 l 56 203 b 63 196 56 199 58 196 z "},"^":{"ha":661,"x_min":0,"x_max":0,"o":"m 326 1038 b 335 1038 329 1039 332 1039 l 567 919 b 576 921 569 918 574 917 l 604 957 b 603 967 607 961 607 964 l 335 1140 b 326 1140 332 1142 329 1142 l 58 967 b 57 957 54 964 54 961 l 85 921 b 94 919 88 917 92 918 z "},"%":{"ha":1868,"x_min":0,"x_max":0,"o":"m 1076 1264 b 1054 1254 1067 1267 1061 1265 b 776 1125 1004 1171 922 1125 b 428 1168 599 1125 549 1168 b 56 815 156 1168 56 972 b 428 463 56 658 156 463 b 799 815 700 463 799 658 b 700 1068 799 901 771 997 b 1058 1189 860 1029 1006 1042 l 1071 1185 l 682 -75 b 696 -94 679 -85 682 -90 l 750 -110 b 774 -100 763 -114 771 -110 l 1179 1218 b 1168 1238 1182 1229 1181 1233 z m 428 515 b 247 832 297 515 247 604 b 428 1115 247 1031 303 1115 b 604 815 556 1115 604 1031 b 428 515 604 600 556 515 z m 1442 690 b 1069 338 1169 690 1069 494 b 1442 -15 1069 181 1169 -15 b 1813 338 1714 -15 1813 181 b 1442 690 1813 494 1714 690 z m 1442 38 b 1261 354 1311 38 1261 126 b 1442 638 1261 553 1317 638 b 1618 338 1569 638 1618 553 b 1442 38 1618 122 1569 38 z "},"↑":{"ha":747,"x_min":0,"x_max":0,"o":"m 347 772 b 340 765 343 772 340 769 b 63 475 340 583 238 475 b 56 468 58 475 56 472 l 56 332 b 63 325 56 328 58 325 b 339 578 210 325 339 447 l 353 578 b 306 71 353 329 306 251 l 306 -14 b 313 -21 306 -18 308 -21 l 435 -21 b 442 -14 439 -21 442 -18 l 442 71 b 394 578 442 251 394 329 l 408 578 b 685 325 408 447 538 325 b 692 332 689 325 692 328 l 692 468 b 685 475 692 472 689 475 b 407 765 510 475 407 583 b 400 772 407 769 404 772 z "},"↗":{"ha":738,"x_min":0,"x_max":0,"o":"m 638 679 b 628 679 635 682 631 682 b 226 671 499 550 350 546 b 217 671 224 674 219 674 l 121 574 b 121 564 117 571 117 567 b 494 547 224 460 401 456 l 504 538 b 113 213 328 363 240 340 l 53 153 b 53 143 50 150 50 146 l 139 57 b 149 57 142 54 146 54 l 208 117 b 533 508 336 244 358 332 l 543 499 b 560 124 451 406 456 228 b 569 124 563 121 567 121 l 667 221 b 667 231 669 224 669 228 b 675 632 543 354 546 503 b 675 642 678 635 678 639 z "},"→":{"ha":904,"x_min":0,"x_max":0,"o":"m 849 408 b 842 415 849 413 846 415 b 551 693 660 415 551 518 b 544 700 551 697 549 700 l 408 700 b 401 693 404 700 401 697 b 654 417 401 546 524 417 l 654 403 b 147 450 406 403 328 450 l 63 450 b 56 443 58 450 56 447 l 56 321 b 63 314 56 317 58 314 l 147 314 b 654 361 328 314 406 361 l 654 347 b 401 71 524 347 401 218 b 408 64 401 67 404 64 l 544 64 b 551 71 549 64 551 67 b 842 349 551 246 660 349 b 849 356 846 349 849 351 z "},"↘":{"ha":739,"x_min":0,"x_max":0,"o":"m 681 104 b 681 114 683 107 683 111 b 672 515 551 243 549 392 b 672 525 675 518 675 522 l 575 622 b 565 622 572 625 568 625 b 549 247 461 518 457 340 l 539 238 b 214 629 364 414 342 501 l 154 689 b 144 689 151 692 147 692 l 58 603 b 58 593 56 600 56 596 l 118 533 b 510 208 246 406 333 383 l 500 199 b 126 182 407 290 229 286 b 126 172 122 179 122 175 l 222 75 b 232 75 225 72 229 72 b 633 67 356 200 504 196 b 643 67 636 64 640 64 z "},"↓":{"ha":747,"x_min":0,"x_max":0,"o":"m 400 -6 b 407 1 404 -6 407 -3 b 685 292 407 183 510 292 b 692 299 689 292 692 294 l 692 435 b 685 442 692 439 689 442 b 408 189 538 442 408 319 l 394 189 b 442 696 394 438 442 515 l 442 781 b 435 788 442 785 439 788 l 313 788 b 306 781 308 788 306 785 l 306 696 b 353 189 306 515 353 438 l 339 189 b 63 442 339 319 210 442 b 56 435 58 442 56 439 l 56 299 b 63 292 56 294 58 292 b 340 1 238 292 340 183 b 347 -6 340 -3 343 -6 z "},"↙":{"ha":739,"x_min":0,"x_max":0,"o":"m 96 67 b 106 67 99 64 103 64 b 507 75 235 196 383 200 b 517 75 510 72 514 72 l 613 172 b 613 182 617 175 617 179 b 239 199 510 286 332 290 l 229 208 b 621 533 406 383 493 406 l 681 593 b 681 603 683 596 683 600 l 594 689 b 585 689 592 692 588 692 l 525 629 b 200 238 397 501 375 414 l 190 247 b 174 622 282 340 278 518 b 164 622 171 625 167 625 l 67 525 b 67 515 64 522 64 518 b 58 114 190 392 188 243 b 58 104 56 111 56 107 z "},"←":{"ha":918,"x_min":0,"x_max":0,"o":"m 69 356 b 76 349 69 351 72 349 b 367 71 258 349 367 246 b 374 64 367 67 369 64 l 510 64 b 517 71 514 64 517 67 b 264 347 517 218 394 347 l 264 361 b 771 314 513 361 590 314 l 856 314 b 863 321 860 314 863 317 l 863 443 b 856 450 863 447 860 450 l 771 450 b 264 403 590 450 513 403 l 264 417 b 517 693 394 417 517 546 b 510 700 517 697 514 700 l 374 700 b 367 693 369 700 367 697 b 76 415 367 518 258 415 b 69 408 72 415 69 413 z "},"↖":{"ha":739,"x_min":0,"x_max":0,"o":"m 58 642 b 58 632 56 639 56 635 b 67 231 188 503 190 354 b 67 221 64 228 64 224 l 164 124 b 174 124 167 121 171 121 b 190 499 278 228 282 406 l 200 508 b 525 117 375 332 397 244 l 585 57 b 594 57 588 54 592 54 l 681 143 b 681 153 683 146 683 150 l 621 213 b 229 538 493 340 406 363 l 239 547 b 613 564 332 456 510 460 b 613 574 617 567 617 571 l 517 671 b 507 671 514 674 510 674 b 106 679 383 546 235 550 b 96 679 103 682 99 682 z "},"↔":{"ha":1381,"x_min":0,"x_max":0,"o":"m 690 450 b 264 403 500 450 511 403 l 264 417 b 517 693 394 417 517 546 b 510 700 517 697 514 700 l 374 700 b 367 693 369 700 367 697 b 63 415 367 511 263 415 b 56 408 58 415 56 413 l 56 356 b 63 349 56 351 58 349 b 367 71 263 349 367 253 b 374 64 367 67 369 64 l 510 64 b 517 71 514 64 517 67 b 264 347 517 218 394 347 l 264 361 b 690 314 513 361 497 314 b 1117 361 883 314 868 361 l 1117 347 b 864 71 986 347 864 218 b 871 64 864 67 867 64 l 1007 64 b 1014 71 1011 64 1014 67 b 1318 349 1014 253 1118 349 b 1325 356 1322 349 1325 351 l 1325 408 b 1318 415 1325 413 1322 415 b 1014 693 1118 415 1014 511 b 1007 700 1014 697 1011 700 l 871 700 b 864 693 867 700 864 697 b 1117 417 864 546 986 417 l 1117 403 b 690 450 869 403 881 450 z "},"↕":{"ha":747,"x_min":0,"x_max":0,"o":"m 442 372 b 394 799 442 563 394 551 l 408 799 b 685 546 408 668 538 546 b 692 553 689 546 692 549 l 692 689 b 685 696 692 693 689 696 b 407 1000 503 696 407 800 b 400 1007 407 1004 404 1007 l 347 1007 b 340 1000 343 1007 340 1004 b 63 696 340 800 244 696 b 56 689 58 696 56 693 l 56 553 b 63 546 56 549 58 546 b 339 799 210 546 339 668 l 353 799 b 306 372 353 550 306 565 b 353 -54 306 179 353 194 l 339 -54 b 63 199 339 76 210 199 b 56 192 58 199 56 196 l 56 56 b 63 49 56 51 58 49 b 340 -256 244 49 340 -56 b 347 -262 340 -260 343 -262 l 400 -262 b 407 -256 404 -262 407 -260 b 685 49 407 -56 503 49 b 692 56 689 49 692 51 l 692 192 b 685 199 692 196 689 199 b 408 -54 538 199 408 76 l 394 -54 b 442 372 394 193 442 182 z "},"@":{"ha":1517,"x_min":0,"x_max":0,"o":"m 728 -294 b 1460 142 969 -294 1269 -196 b 1456 153 1463 147 1461 151 l 1415 167 b 1407 163 1413 168 1410 168 b 739 -200 1243 -122 949 -200 b 150 365 382 -200 150 42 b 740 944 150 692 382 944 b 1265 454 1090 944 1265 710 b 1065 93 1265 281 1183 138 l 1067 422 b 726 788 1068 708 907 788 b 411 519 546 788 411 708 b 415 461 411 500 413 481 b 318 254 354 418 318 349 b 653 -15 318 71 458 -15 b 900 99 757 -15 840 10 l 914 99 b 892 46 897 75 892 63 b 961 -15 892 13 913 -15 b 1060 -1 985 -15 1031 -8 b 1360 446 1188 29 1360 160 b 743 1039 1360 771 1140 1039 b 56 365 331 1039 56 750 b 728 -294 56 -17 325 -294 z m 900 415 b 646 524 840 504 758 524 b 460 488 572 524 513 514 b 456 533 457 504 456 519 b 693 707 456 654 569 707 b 914 415 871 707 926 601 z m 713 38 b 510 254 588 38 510 125 b 710 471 510 385 589 471 b 914 254 835 471 914 386 b 713 38 914 121 833 38 z "},"&":{"ha":1149,"x_min":0,"x_max":0,"o":"m 882 125 b 1093 618 1019 247 1093 435 l 1092 681 b 1082 690 1092 688 1089 690 l 768 690 b 761 683 764 690 761 688 l 761 644 b 768 638 761 640 764 638 l 901 638 b 907 540 904 613 907 574 b 831 214 907 410 879 299 l 351 1051 l 365 1051 b 551 1003 394 1000 440 1003 l 740 1003 b 951 860 922 1003 951 981 b 958 853 951 856 954 853 l 997 853 b 1004 860 1001 853 1004 856 l 1004 1146 b 997 1153 1004 1150 1001 1153 l 249 1153 b 239 1143 243 1153 239 1149 b 240 1139 239 1142 239 1140 l 547 604 l 533 604 b 358 667 490 644 432 667 b 56 358 168 667 56 553 b 500 -15 56 124 221 -15 b 840 92 635 -15 750 25 l 989 -168 b 999 -169 990 -171 996 -171 l 1032 -151 b 1035 -142 1035 -150 1036 -144 z m 543 38 b 247 357 365 38 247 165 b 418 611 247 492 294 611 b 638 444 503 611 582 533 l 799 165 b 543 38 735 83 647 38 z "},"©":{"ha":1524,"x_min":0,"x_max":0,"o":"m 763 -285 b 1428 382 1156 -285 1428 15 b 763 1049 1428 749 1156 1049 b 96 382 382 1049 96 761 b 763 -285 96 3 382 -285 z m 763 -190 b 190 382 421 -190 190 68 b 763 954 190 696 421 954 b 1333 382 1092 954 1333 710 b 763 -190 1333 54 1092 -190 z m 1135 246 b 1114 207 1131 236 1122 219 b 825 44 1043 96 946 44 b 564 403 644 44 564 160 b 772 725 564 626 632 725 b 960 436 903 725 960 640 b 968 429 960 433 960 431 l 1139 397 b 1154 404 1143 396 1154 394 b 779 778 1169 628 1026 778 b 369 392 533 778 369 629 b 783 -15 369 179 500 -15 b 1188 243 981 -15 1114 72 b 1181 251 1190 251 1183 251 l 1143 251 b 1135 246 1140 251 1138 251 z "},"®":{"ha":919,"x_min":0,"x_max":0,"o":"m 460 1214 b 83 836 239 1214 83 1058 b 460 458 83 614 239 458 b 836 836 682 458 836 613 b 460 1214 836 1060 682 1214 z m 460 511 b 136 836 268 511 136 643 b 460 1161 136 1029 268 1161 b 783 836 653 1161 783 1031 b 460 511 783 643 653 511 z m 694 646 b 601 731 638 646 617 668 b 533 839 582 815 576 832 l 533 844 b 618 947 586 858 618 894 b 461 1058 618 1017 560 1058 l 267 1058 b 264 1056 264 1058 264 1057 l 264 1042 b 267 1039 264 1040 264 1039 b 319 960 311 1039 319 1028 l 319 725 b 267 646 319 657 311 646 b 264 643 264 646 264 644 l 264 629 b 267 626 264 628 264 626 l 443 626 b 446 629 446 626 446 628 l 446 643 b 443 646 446 644 446 646 b 390 725 399 646 390 657 l 390 864 l 396 864 b 476 838 418 849 438 838 l 479 838 b 479 838 479 838 479 838 l 483 838 b 532 728 515 838 515 822 b 663 626 549 636 590 626 l 694 626 b 696 629 696 626 696 628 l 696 643 b 694 646 696 644 696 646 z m 468 857 b 390 885 433 857 413 869 l 390 949 b 360 1039 390 1000 389 1024 l 360 1044 b 390 1039 375 1039 379 1039 l 447 1039 b 546 947 513 1039 546 1007 b 468 857 546 888 519 857 z "},"™":{"ha":1544,"x_min":0,"x_max":0,"o":"m 582 1218 b 576 1222 581 1221 579 1222 l 549 1222 b 542 1215 544 1222 542 1219 b 493 1194 542 1194 514 1194 l 119 1194 b 83 1214 99 1194 83 1194 b 75 1222 83 1219 79 1222 l 49 1222 b 43 1218 46 1222 43 1221 l 14 1072 b 17 1068 14 1069 14 1068 l 36 1064 b 40 1067 38 1064 39 1064 b 160 1142 51 1125 69 1142 l 250 1142 b 332 1156 278 1142 294 1142 l 332 1142 b 256 1007 263 1111 256 1088 l 256 785 b 185 679 256 694 244 679 b 181 676 182 679 181 678 l 181 657 b 185 653 181 654 182 653 l 429 653 b 432 657 431 653 432 654 l 432 676 b 429 679 432 678 431 679 b 357 785 368 679 357 694 l 357 1043 b 440 1142 357 1122 374 1142 l 465 1142 b 585 1067 557 1142 574 1125 b 589 1064 586 1064 588 1064 l 608 1068 b 611 1072 611 1068 611 1069 z m 1486 1168 b 1489 1172 1488 1168 1489 1169 l 1489 1192 b 1486 1194 1489 1193 1488 1194 l 1319 1194 b 1281 1171 1303 1194 1289 1186 l 1072 775 l 1058 775 b 1067 822 1065 794 1067 810 b 1049 885 1067 847 1058 865 l 908 1172 b 871 1194 901 1188 886 1194 l 663 1194 b 658 1192 660 1194 658 1193 l 658 1172 b 663 1168 658 1169 660 1168 b 733 1063 722 1168 733 1154 l 733 785 b 663 679 733 694 722 679 b 658 676 660 679 658 678 l 658 657 b 663 653 658 654 660 653 l 858 653 b 861 657 860 653 861 654 l 861 676 b 858 679 861 678 860 679 b 786 785 797 679 786 694 l 786 989 b 763 1128 786 1085 782 1110 l 763 1142 b 829 1085 785 1135 808 1128 l 1040 647 b 1064 647 1046 636 1058 636 l 1299 1092 l 1313 1092 l 1313 785 b 1242 679 1313 694 1301 679 b 1238 676 1239 679 1238 678 l 1238 657 b 1242 653 1238 654 1239 653 l 1486 653 b 1489 657 1488 653 1489 654 l 1489 676 b 1486 679 1489 678 1488 679 b 1414 785 1425 679 1414 694 l 1414 1063 b 1486 1168 1414 1154 1425 1168 z "},"|":{"ha":206,"x_min":0,"x_max":0,"o":"m 56 -451 b 63 -458 56 -456 58 -458 l 143 -458 b 150 -451 147 -458 150 -456 l 150 1246 b 143 1253 150 1250 147 1253 l 63 1253 b 56 1246 58 1253 56 1250 z "},"̈":{"ha":0,"x_min":0,"x_max":0,"o":"m -415 933 b -325 1024 -361 933 -325 969 b -415 1114 -325 1076 -361 1114 b -507 1024 -471 1114 -507 1076 b -415 933 -507 969 -471 933 z m -139 933 b -49 1024 -85 933 -49 969 b -139 1114 -49 1076 -85 1114 b -231 1024 -194 1114 -231 1076 b -139 933 -231 969 -194 933 z "},"̀":{"ha":0,"x_min":0,"x_max":0,"o":"m -87 919 b -78 924 -83 918 -79 919 l -67 960 b -71 969 -65 964 -67 968 l -539 1131 b -549 1126 -543 1132 -547 1131 l -568 1053 b -564 1043 -569 1049 -568 1044 z "},"́":{"ha":0,"x_min":0,"x_max":0,"o":"m -54 1043 b -50 1053 -50 1044 -49 1049 l -69 1126 b -79 1131 -71 1131 -75 1132 l -547 969 b -551 960 -551 968 -553 964 l -540 924 b -531 919 -539 919 -535 918 z "},"̂":{"ha":0,"x_min":0,"x_max":0,"o":"m -335 1038 b -326 1038 -332 1039 -329 1039 l -94 919 b -85 921 -92 918 -87 917 l -57 957 b -58 967 -54 961 -54 964 l -326 1140 b -335 1140 -329 1142 -332 1142 l -603 967 b -604 957 -607 964 -607 961 l -576 921 b -567 919 -574 917 -569 918 z "},"̃":{"ha":0,"x_min":0,"x_max":0,"o":"m -187 907 b -61 1025 -101 907 -61 958 b -81 1118 -61 1054 -71 1099 b -87 1124 -82 1121 -83 1124 l -132 1124 b -139 1111 -136 1124 -142 1124 b -179 999 -135 1088 -106 999 b -507 1138 -272 999 -360 1138 b -650 1000 -600 1138 -650 1082 b -635 926 -650 976 -644 956 b -625 921 -633 921 -628 921 l -586 921 b -576 931 -583 921 -575 921 b -521 1046 -585 988 -593 1046 b -187 907 -408 1046 -329 907 z "},"̧":{"ha":0,"x_min":0,"x_max":0,"o":"m -371 -325 b -247 -346 -328 -339 -286 -346 b -51 -190 -136 -346 -51 -290 b -231 -86 -51 -108 -106 -83 l -164 3 l -242 3 l -332 -133 l -262 -133 b -143 -189 -172 -133 -143 -146 b -236 -262 -143 -239 -181 -262 b -367 -236 -276 -262 -324 -251 b -376 -243 -374 -233 -376 -240 l -376 -318 b -371 -325 -376 -321 -375 -324 z "},"¨":{"ha":569,"x_min":0,"x_max":0,"o":"m 147 933 b 238 1024 201 933 238 969 b 147 1114 238 1076 201 1114 b 56 1024 92 1114 56 1076 b 147 933 56 969 92 933 z m 424 933 b 514 1024 478 933 514 969 b 424 1114 514 1076 478 1114 b 332 1024 368 1114 332 1076 b 424 933 332 969 368 933 z "},"`":{"ha":622,"x_min":0,"x_max":0,"o":"m 531 919 b 540 924 535 918 539 919 l 551 960 b 547 969 553 964 551 968 l 79 1131 b 69 1126 75 1132 71 1131 l 50 1053 b 54 1043 49 1049 50 1044 z "},"´":{"ha":622,"x_min":0,"x_max":0,"o":"m 563 1043 b 567 1053 567 1044 568 1049 l 547 1126 b 538 1131 546 1131 542 1132 l 69 969 b 65 960 65 968 64 964 l 76 924 b 86 919 78 919 82 918 z "},"ˆ":{"ha":661,"x_min":0,"x_max":0,"o":"m 326 1038 b 335 1038 329 1039 332 1039 l 567 919 b 576 921 569 918 574 917 l 604 957 b 603 967 607 961 607 964 l 335 1140 b 326 1140 332 1142 329 1142 l 58 967 b 57 957 54 964 54 961 l 85 921 b 94 919 88 917 92 918 z "},"˜":{"ha":700,"x_min":0,"x_max":0,"o":"m 518 907 b 644 1025 604 907 644 958 b 625 1118 644 1054 635 1099 b 618 1124 624 1121 622 1124 l 574 1124 b 567 1111 569 1124 564 1124 b 526 999 571 1088 600 999 b 199 1138 433 999 346 1138 b 56 1000 106 1138 56 1082 b 71 926 56 976 61 956 b 81 921 72 921 78 921 l 119 921 b 129 931 122 921 131 921 b 185 1046 121 988 113 1046 b 518 907 297 1046 376 907 z "},"¸":{"ha":436,"x_min":0,"x_max":0,"o":"m 61 -325 b 185 -346 104 -339 146 -346 b 381 -190 296 -346 381 -290 b 201 -86 381 -108 326 -83 l 268 3 l 190 3 l 100 -133 l 169 -133 b 289 -189 260 -133 289 -146 b 196 -262 289 -239 251 -262 b 65 -236 156 -262 108 -251 b 56 -243 58 -233 56 -240 l 56 -318 b 61 -325 56 -321 57 -324 z "}}}
